<mxfile host="app.diagrams.net" agent="Mozilla/5.0 (Windows NT 10.0; Win64; x64) AppleWebKit/537.36 (KHTML, like Gecko) Chrome/133.0.0.0 Safari/537.36" version="26.0.11" pages="5">
  <diagram id="Zn5vVj__D7l42SeJtTeH" name="Lang Portal">
    <mxGraphModel dx="3434" dy="2511" grid="1" gridSize="10" guides="1" tooltips="1" connect="1" arrows="1" fold="1" page="1" pageScale="1" pageWidth="827" pageHeight="1169" math="0" shadow="0">
      <root>
        <mxCell id="0" />
        <mxCell id="1" parent="0" />
        <mxCell id="zYvY3kyovHQD-HebnR98-1" value="study_sessions.py" style="html=1;overflow=block;blockSpacing=1;whiteSpace=wrap;fontSize=16.7;fontColor=#3a414a;align=left;spacing=9;verticalAlign=top;strokeColor=#282c33;strokeOpacity=100;fillOpacity=100;rounded=1;absoluteArcSize=1;arcSize=9;fillColor=#ffffff;strokeWidth=1.5;lucidId=RlKOwMEIoFTk;" vertex="1" parent="1">
          <mxGeometry x="275" y="1065" width="309" height="250" as="geometry" />
        </mxCell>
        <mxCell id="zYvY3kyovHQD-HebnR98-2" value="backend" style="html=1;overflow=block;blockSpacing=1;whiteSpace=wrap;fontSize=16.7;fontColor=#3a414a;align=left;spacing=9;verticalAlign=top;strokeColor=#282c33;strokeOpacity=100;fillOpacity=100;rounded=1;absoluteArcSize=1;arcSize=9;fillColor=#edf5ff;strokeWidth=1.5;lucidId=KQ7QHIow9elR;" vertex="1" parent="1">
          <mxGeometry x="205" y="212" width="444" height="1139" as="geometry" />
        </mxCell>
        <mxCell id="zYvY3kyovHQD-HebnR98-3" value="words.py" style="html=1;overflow=block;blockSpacing=1;whiteSpace=wrap;fontSize=16.7;align=left;spacing=9;verticalAlign=top;rounded=1;absoluteArcSize=1;arcSize=9;strokeWidth=NaN;lucidId=SgKO0POqS4Gi;" vertex="1" parent="1">
          <mxGeometry x="275" y="576" width="309" height="145" as="geometry" />
        </mxCell>
        <mxCell id="zYvY3kyovHQD-HebnR98-4" value="&lt;div style=&quot;display: flex; justify-content: flex-start; text-align: left; align-items: baseline; font-size: 0; line-height: 1.25;margin-top: -2px;&quot;&gt;&lt;span&gt;&lt;span style=&quot;font-size:16.7px;color:#e81313;font-weight: bold;&quot;&gt;POST&lt;/span&gt;&lt;span style=&quot;font-size:16.7px;color:#3a414a;&quot;&gt; /study_sessions&lt;/span&gt;&lt;/span&gt;&lt;/div&gt;" style="html=1;overflow=block;blockSpacing=1;whiteSpace=wrap;fontSize=13;spacing=9;verticalAlign=top;strokeColor=#282c33;strokeOpacity=100;fillOpacity=100;rounded=1;absoluteArcSize=1;arcSize=9;fillColor=#ffffff;strokeWidth=1.5;lucidId=.lKOzeWsYZzg;" vertex="1" parent="1">
          <mxGeometry x="292" y="1212" width="313" height="39" as="geometry" />
        </mxCell>
        <mxCell id="zYvY3kyovHQD-HebnR98-5" value="GET /api/study-sessions" style="html=1;overflow=block;blockSpacing=1;whiteSpace=wrap;fontSize=16.7;fontColor=#3a414a;align=left;spacing=9;verticalAlign=top;strokeColor=#282c33;strokeOpacity=100;fillOpacity=100;rounded=1;absoluteArcSize=1;arcSize=9;fillColor=#ffffff;strokeWidth=1.5;lucidId=RmKOA.-BA-cq;" vertex="1" parent="1">
          <mxGeometry x="292" y="1108" width="313" height="39" as="geometry" />
        </mxCell>
        <mxCell id="zYvY3kyovHQD-HebnR98-6" value="GET /api/study-sessions/:id" style="html=1;overflow=block;blockSpacing=1;whiteSpace=wrap;fontSize=16.7;fontColor=#3a414a;align=left;spacing=9;verticalAlign=top;strokeColor=#282c33;strokeOpacity=100;fillOpacity=100;rounded=1;absoluteArcSize=1;arcSize=9;fillColor=#ffffff;strokeWidth=1.5;lucidId=_mKOpBneajc~;" vertex="1" parent="1">
          <mxGeometry x="292" y="1160" width="313" height="39" as="geometry" />
        </mxCell>
        <mxCell id="zYvY3kyovHQD-HebnR98-7" value="GET /dashboard/stats" style="html=1;overflow=block;blockSpacing=1;whiteSpace=wrap;fontSize=16.7;fontColor=#3a414a;align=left;spacing=9;verticalAlign=top;strokeColor=#282c33;strokeOpacity=100;fillOpacity=100;rounded=1;absoluteArcSize=1;arcSize=9;fillColor=#ffffff;strokeWidth=1.5;lucidId=yhKOSDOouAGD;" vertex="1" parent="1">
          <mxGeometry x="292" y="289" width="313" height="39" as="geometry" />
        </mxCell>
        <mxCell id="zYvY3kyovHQD-HebnR98-8" value="GET /words" style="html=1;overflow=block;blockSpacing=1;whiteSpace=wrap;fontSize=16.7;fontColor=#3a414a;align=left;spacing=9;verticalAlign=top;strokeColor=#282c33;strokeOpacity=100;fillOpacity=100;rounded=1;absoluteArcSize=1;arcSize=9;fillColor=#ffffff;strokeWidth=1.5;lucidId=PnKO1egvDs1Y;" vertex="1" parent="1">
          <mxGeometry x="292" y="607" width="313" height="39" as="geometry" />
        </mxCell>
        <mxCell id="zYvY3kyovHQD-HebnR98-9" value="&lt;div style=&quot;display: flex; justify-content: center; text-align: center; align-items: baseline; font-size: 0; line-height: 1.25;margin-top: -2px;&quot;&gt;&lt;span&gt;&lt;span style=&quot;font-size:16.7px;color:#3a414a;font-weight: bold;&quot;&gt;Sqlite3 DB&lt;/span&gt;&lt;span style=&quot;font-size:16.7px;color:#3a414a;&quot;&gt;&#xa;words.db&lt;/span&gt;&lt;/span&gt;&lt;/div&gt;" style="html=1;overflow=block;blockSpacing=1;whiteSpace=wrap;fontSize=13;spacing=9;strokeColor=#282c33;strokeOpacity=100;fillOpacity=100;rounded=1;absoluteArcSize=1;arcSize=9;fillColor=#fcfcca;strokeWidth=1.5;lucidId=upKOR2sj7-mI;" vertex="1" parent="1">
          <mxGeometry x="-142" y="277" width="120" height="90" as="geometry" />
        </mxCell>
        <mxCell id="zYvY3kyovHQD-HebnR98-10" value="lib/db.py" style="html=1;overflow=block;blockSpacing=1;whiteSpace=wrap;fontSize=16.7;spacing=9;rounded=1;absoluteArcSize=1;arcSize=9;strokeWidth=NaN;lucidId=2pKOQgKOJvTR;" vertex="1" parent="1">
          <mxGeometry x="62" y="277" width="120" height="90" as="geometry" />
        </mxCell>
        <mxCell id="zYvY3kyovHQD-HebnR98-11" value="GET /words/:word_id" style="html=1;overflow=block;blockSpacing=1;whiteSpace=wrap;fontSize=16.7;fontColor=#3a414a;align=left;spacing=9;verticalAlign=top;strokeColor=#282c33;strokeOpacity=100;fillOpacity=100;rounded=1;absoluteArcSize=1;arcSize=9;fillColor=#ffffff;strokeWidth=1.5;lucidId=ZnKOQo0NT0Qd;" vertex="1" parent="1">
          <mxGeometry x="292" y="661" width="313" height="39" as="geometry" />
        </mxCell>
        <mxCell id="zYvY3kyovHQD-HebnR98-12" value="seed/*.json" style="html=1;overflow=block;blockSpacing=1;whiteSpace=wrap;fontSize=16.7;spacing=9;rounded=1;absoluteArcSize=1;arcSize=9;strokeWidth=NaN;lucidId=_qKOdc236jjL;" vertex="1" parent="1">
          <mxGeometry x="62" y="394" width="120" height="51" as="geometry" />
        </mxCell>
        <mxCell id="zYvY3kyovHQD-HebnR98-13" value="" style="html=1;jettySize=18;whiteSpace=wrap;fontSize=13;strokeColor=#3a414a;strokeOpacity=100;strokeWidth=0.8;rounded=1;arcSize=12;edgeStyle=orthogonalEdgeStyle;exitX=1.006;exitY=0.501;exitPerimeter=0;lucidId=xqKOXwxzk~HL;" edge="1" parent="1" source="zYvY3kyovHQD-HebnR98-10">
          <mxGeometry width="100" height="100" relative="1" as="geometry">
            <Array as="points" />
            <mxPoint x="241" y="322" as="targetPoint" />
          </mxGeometry>
        </mxCell>
        <mxCell id="zYvY3kyovHQD-HebnR98-14" value="sql/setup/*.sql" style="html=1;overflow=block;blockSpacing=1;whiteSpace=wrap;fontSize=16.7;spacing=9;rounded=1;absoluteArcSize=1;arcSize=9;strokeWidth=NaN;lucidId=mrKOWqH~P~MJ;" vertex="1" parent="1">
          <mxGeometry x="94" y="459" width="120" height="51" as="geometry" />
        </mxCell>
        <mxCell id="zYvY3kyovHQD-HebnR98-15" value="" style="html=1;jettySize=18;whiteSpace=wrap;fontSize=13;strokeColor=#3a414a;strokeOpacity=100;strokeWidth=0.8;rounded=1;arcSize=12;edgeStyle=orthogonalEdgeStyle;startArrow=none;endArrow=block;endFill=1;exitX=0.14;exitY=1.015;exitPerimeter=0;entryX=0.139;entryY=-0.009;entryPerimeter=0;lucidId=2rKOEqBllMbh;" edge="1" parent="1" source="zYvY3kyovHQD-HebnR98-12" target="zYvY3kyovHQD-HebnR98-19">
          <mxGeometry width="100" height="100" relative="1" as="geometry">
            <Array as="points" />
          </mxGeometry>
        </mxCell>
        <mxCell id="zYvY3kyovHQD-HebnR98-16" value="" style="html=1;jettySize=18;whiteSpace=wrap;fontSize=13;strokeColor=#3a414a;strokeOpacity=100;strokeWidth=0.8;rounded=1;arcSize=12;edgeStyle=orthogonalEdgeStyle;startArrow=none;endArrow=block;endFill=1;exitX=0.115;exitY=1.015;exitPerimeter=0;entryX=0.381;entryY=-0.009;entryPerimeter=0;lucidId=8rKOIu-~D_TO;" edge="1" parent="1" source="zYvY3kyovHQD-HebnR98-14" target="zYvY3kyovHQD-HebnR98-19">
          <mxGeometry width="100" height="100" relative="1" as="geometry">
            <Array as="points" />
          </mxGeometry>
        </mxCell>
        <mxCell id="zYvY3kyovHQD-HebnR98-17" value="invoke init_db" style="html=1;overflow=block;blockSpacing=1;whiteSpace=wrap;fontSize=16.7;align=left;spacing=9;verticalAlign=top;rounded=1;absoluteArcSize=1;arcSize=9;strokeWidth=NaN;lucidId=jsKOKinL_gaz;" vertex="1" parent="1">
          <mxGeometry x="-162" y="558" width="130" height="34" as="geometry" />
        </mxCell>
        <mxCell id="zYvY3kyovHQD-HebnR98-18" value="" style="html=1;jettySize=18;whiteSpace=wrap;fontSize=13;strokeColor=#3a414a;strokeOpacity=100;strokeWidth=0.8;rounded=1;arcSize=12;edgeStyle=orthogonalEdgeStyle;startArrow=none;endArrow=block;endFill=1;exitX=1.006;exitY=0.5;exitPerimeter=0;entryX=-0.005;entryY=0.5;entryPerimeter=0;lucidId=zsKOxdnkyKGo;" edge="1" parent="1" source="zYvY3kyovHQD-HebnR98-17" target="zYvY3kyovHQD-HebnR98-19">
          <mxGeometry width="100" height="100" relative="1" as="geometry">
            <Array as="points" />
          </mxGeometry>
        </mxCell>
        <mxCell id="zYvY3kyovHQD-HebnR98-19" value="tasks.py" style="html=1;overflow=block;blockSpacing=1;whiteSpace=wrap;fontSize=16.7;align=left;spacing=9;verticalAlign=top;rounded=1;absoluteArcSize=1;arcSize=9;strokeWidth=NaN;lucidId=yrKOnylpIHBm;" vertex="1" parent="1">
          <mxGeometry x="62" y="539" width="163" height="86" as="geometry" />
        </mxCell>
        <mxCell id="zYvY3kyovHQD-HebnR98-20" value="" style="html=1;jettySize=18;whiteSpace=wrap;fontSize=13;strokeColor=#3a414a;strokeOpacity=100;strokeWidth=0.8;rounded=1;arcSize=12;edgeStyle=orthogonalEdgeStyle;endArrow=block;endFill=1;exitX=1.006;exitY=0.5;exitPerimeter=0;entryX=-0.006;entryY=0.5;entryPerimeter=0;lucidId=itKObDuZJSw4;" edge="1" parent="1" source="zYvY3kyovHQD-HebnR98-9" target="zYvY3kyovHQD-HebnR98-10">
          <mxGeometry width="100" height="100" relative="1" as="geometry">
            <Array as="points" />
          </mxGeometry>
        </mxCell>
        <mxCell id="zYvY3kyovHQD-HebnR98-21" value="Frontend" style="html=1;overflow=block;blockSpacing=1;whiteSpace=wrap;fontSize=16.7;fontColor=#3a414a;align=left;spacing=9;verticalAlign=top;strokeColor=#282c33;strokeOpacity=100;fillOpacity=100;rounded=1;absoluteArcSize=1;arcSize=9;fillColor=#edf5ff;strokeWidth=1.5;lucidId=YQ7Q0yuJoSgn;" vertex="1" parent="1">
          <mxGeometry x="782" y="69" width="700" height="1011" as="geometry" />
        </mxCell>
        <mxCell id="zYvY3kyovHQD-HebnR98-22" value="Pages" style="html=1;overflow=block;blockSpacing=1;whiteSpace=wrap;fontSize=16.7;align=left;spacing=9;verticalAlign=top;strokeColor=#unset;rounded=1;absoluteArcSize=1;arcSize=9;fillColor=#unset;strokeWidth=NaN;lucidId=AvKOq6Q6Mkkj;" vertex="1" parent="1">
          <mxGeometry x="1145" y="169" width="202" height="518" as="geometry" />
        </mxCell>
        <mxCell id="zYvY3kyovHQD-HebnR98-23" value="App.tsx" style="html=1;overflow=block;blockSpacing=1;whiteSpace=wrap;fontSize=16.7;fontColor=#3a414a;align=left;spacing=9;verticalAlign=top;strokeColor=#282c33;strokeOpacity=100;fillOpacity=100;rounded=1;absoluteArcSize=1;arcSize=9;fillColor=#edf5ff;strokeWidth=1.5;lucidId=pwKONqS4zgR2;" vertex="1" parent="1">
          <mxGeometry x="1148" y="133" width="253" height="579" as="geometry" />
        </mxCell>
        <mxCell id="zYvY3kyovHQD-HebnR98-24" value="ui/AppRouter" style="html=1;overflow=block;blockSpacing=1;whiteSpace=wrap;fontSize=16.7;align=left;spacing=9;verticalAlign=top;rounded=1;absoluteArcSize=1;arcSize=9;strokeWidth=NaN;lucidId=-vKO_GGjefKX;" vertex="1" parent="1">
          <mxGeometry x="1120" y="164" width="266" height="540" as="geometry" />
        </mxCell>
        <mxCell id="zYvY3kyovHQD-HebnR98-25" value="&amp;lt;Dashboard /&amp;gt;" style="html=1;overflow=block;blockSpacing=1;whiteSpace=wrap;fontSize=16.7;fontColor=#3a414a;align=left;spacing=9;strokeColor=#282c33;strokeOpacity=100;fillOpacity=100;rounded=1;absoluteArcSize=1;arcSize=9;fillColor=#ffffff;strokeWidth=1.5;lucidId=kxKOz0hoMLiP;" vertex="1" parent="1">
          <mxGeometry x="821" y="201" width="209" height="30" as="geometry" />
        </mxCell>
        <mxCell id="zYvY3kyovHQD-HebnR98-26" value="&amp;lt;StudyActivities /&amp;gt;" style="html=1;overflow=block;blockSpacing=1;whiteSpace=wrap;fontSize=16.7;fontColor=#3a414a;align=left;spacing=9;strokeColor=#282c33;strokeOpacity=100;fillOpacity=100;rounded=1;absoluteArcSize=1;arcSize=9;fillColor=#ffffff;strokeWidth=1.5;lucidId=sxKOMGTevVhK;" vertex="1" parent="1">
          <mxGeometry x="821" y="239" width="209" height="31" as="geometry" />
        </mxCell>
        <mxCell id="zYvY3kyovHQD-HebnR98-27" value="&amp;lt;StudyActivityShow /&amp;gt;" style="html=1;overflow=block;blockSpacing=1;whiteSpace=wrap;fontSize=16.7;fontColor=#3a414a;align=left;spacing=9;strokeColor=#282c33;strokeOpacity=100;fillOpacity=100;rounded=1;absoluteArcSize=1;arcSize=9;fillColor=#ffffff;strokeWidth=1.5;lucidId=IxKO78KLzrNO;" vertex="1" parent="1">
          <mxGeometry x="821" y="279" width="209" height="35" as="geometry" />
        </mxCell>
        <mxCell id="zYvY3kyovHQD-HebnR98-28" value="/" style="html=1;overflow=block;blockSpacing=1;whiteSpace=wrap;fontSize=16.7;align=left;spacing=9;verticalAlign=top;strokeColor=#unset;rounded=1;absoluteArcSize=1;arcSize=9;fillColor=#unset;strokeWidth=NaN;lucidId=MyKOIvpO_T2M;" vertex="1" parent="1">
          <mxGeometry x="1128" y="199" width="213" height="31" as="geometry" />
        </mxCell>
        <mxCell id="zYvY3kyovHQD-HebnR98-29" value="/dashboard" style="html=1;overflow=block;blockSpacing=1;whiteSpace=wrap;fontSize=16.7;align=left;spacing=9;verticalAlign=top;strokeColor=#unset;rounded=1;absoluteArcSize=1;arcSize=9;fillColor=#unset;strokeWidth=NaN;lucidId=VyKO-I35jWfF;" vertex="1" parent="1">
          <mxGeometry x="1128" y="238" width="213" height="31" as="geometry" />
        </mxCell>
        <mxCell id="zYvY3kyovHQD-HebnR98-30" value="" style="html=1;jettySize=18;whiteSpace=wrap;fontSize=13;strokeColor=#3a414a;strokeOpacity=100;strokeWidth=0.8;rounded=1;arcSize=12;edgeStyle=orthogonalEdgeStyle;startArrow=none;endArrow=block;endFill=1;exitX=1.004;exitY=0.5;exitPerimeter=0;entryX=1.004;entryY=0.5;entryPerimeter=0;lucidId=bzKObhSEtwS5;" edge="1" parent="1" source="zYvY3kyovHQD-HebnR98-28" target="zYvY3kyovHQD-HebnR98-29">
          <mxGeometry width="100" height="100" relative="1" as="geometry">
            <Array as="points" />
          </mxGeometry>
        </mxCell>
        <mxCell id="zYvY3kyovHQD-HebnR98-31" value="" style="html=1;jettySize=18;whiteSpace=wrap;fontSize=13;strokeColor=#3a414a;strokeOpacity=100;strokeWidth=0.8;rounded=1;arcSize=12;edgeStyle=orthogonalEdgeStyle;startArrow=none;endArrow=block;endFill=1;exitX=-0.004;exitY=0.5;exitPerimeter=0;entryX=1.004;entryY=0.5;entryPerimeter=0;lucidId=qzKOXk8g65a3;" edge="1" parent="1" source="zYvY3kyovHQD-HebnR98-29" target="zYvY3kyovHQD-HebnR98-25">
          <mxGeometry width="100" height="100" relative="1" as="geometry">
            <Array as="points" />
          </mxGeometry>
        </mxCell>
        <mxCell id="zYvY3kyovHQD-HebnR98-32" value="/study-activities" style="html=1;overflow=block;blockSpacing=1;whiteSpace=wrap;fontSize=16.7;fontColor=#3a414a;align=left;spacing=9;verticalAlign=top;strokeColor=#282c33;strokeOpacity=100;fillOpacity=100;rounded=1;absoluteArcSize=1;arcSize=9;fillColor=#ffffff;strokeWidth=1.5;lucidId=BzKO6Alb43AY;" vertex="1" parent="1">
          <mxGeometry x="1128" y="276" width="213" height="31" as="geometry" />
        </mxCell>
        <mxCell id="zYvY3kyovHQD-HebnR98-33" value="" style="html=1;jettySize=18;whiteSpace=wrap;fontSize=13;strokeColor=#3a414a;strokeOpacity=100;strokeWidth=0.8;rounded=1;arcSize=12;edgeStyle=orthogonalEdgeStyle;startArrow=none;endArrow=block;endFill=1;exitX=-0.004;exitY=0.5;exitPerimeter=0;entryX=1.004;entryY=0.5;entryPerimeter=0;lucidId=4zKOQ44oal3G;" edge="1" parent="1" source="zYvY3kyovHQD-HebnR98-32" target="zYvY3kyovHQD-HebnR98-26">
          <mxGeometry width="100" height="100" relative="1" as="geometry">
            <Array as="points" />
          </mxGeometry>
        </mxCell>
        <mxCell id="zYvY3kyovHQD-HebnR98-34" value="/study-activities/:id" style="html=1;overflow=block;blockSpacing=1;whiteSpace=wrap;fontSize=16.7;fontColor=#3a414a;align=left;spacing=9;verticalAlign=top;strokeColor=#282c33;strokeOpacity=100;fillOpacity=100;rounded=1;absoluteArcSize=1;arcSize=9;fillColor=#ffffff;strokeWidth=1.5;lucidId=9zKOlHTkryu4;" vertex="1" parent="1">
          <mxGeometry x="1128" y="315" width="213" height="31" as="geometry" />
        </mxCell>
        <mxCell id="zYvY3kyovHQD-HebnR98-35" value="" style="html=1;jettySize=18;whiteSpace=wrap;fontSize=13;strokeColor=#3a414a;strokeOpacity=100;strokeWidth=0.8;rounded=1;arcSize=12;edgeStyle=orthogonalEdgeStyle;startArrow=none;endArrow=block;endFill=1;exitX=-0.004;exitY=0.5;exitPerimeter=0;entryX=1.004;entryY=0.517;entryPerimeter=0;lucidId=dAKObuH8CH6E;" edge="1" parent="1" source="zYvY3kyovHQD-HebnR98-34" target="zYvY3kyovHQD-HebnR98-27">
          <mxGeometry width="100" height="100" relative="1" as="geometry">
            <Array as="points" />
          </mxGeometry>
        </mxCell>
        <mxCell id="zYvY3kyovHQD-HebnR98-36" value="&lt;div style=&quot;display: flex; justify-content: flex-start; text-align: left; align-items: baseline; font-size: 0; line-height: 1.25;margin-top: -2px;&quot;&gt;&lt;span&gt;&lt;span style=&quot;font-size:16.7px;color:#3a414a;&quot;&gt;&amp;lt;StudyActivityLaunch&lt;/span&gt;&lt;span style=&quot;font-size:16.7px;color:#3a414a;&quot;&gt; /&amp;gt;&lt;/span&gt;&lt;/span&gt;&lt;/div&gt;" style="html=1;overflow=block;blockSpacing=1;whiteSpace=wrap;fontSize=13;spacing=9;strokeColor=#282c33;strokeOpacity=100;fillOpacity=100;rounded=1;absoluteArcSize=1;arcSize=9;fillColor=#ffffff;strokeWidth=1.5;lucidId=oAKOhYve_bL~;" vertex="1" parent="1">
          <mxGeometry x="821" y="322" width="209" height="35" as="geometry" />
        </mxCell>
        <mxCell id="zYvY3kyovHQD-HebnR98-37" value="/study-activities/:id/launch" style="html=1;overflow=block;blockSpacing=1;whiteSpace=wrap;fontSize=16.7;fontColor=#3a414a;align=left;spacing=9;verticalAlign=top;strokeColor=#282c33;strokeOpacity=100;fillOpacity=100;rounded=1;absoluteArcSize=1;arcSize=9;fillColor=#ffffff;strokeWidth=1.5;lucidId=MBKOAqDu_bwx;" vertex="1" parent="1">
          <mxGeometry x="1128" y="353" width="213" height="31" as="geometry" />
        </mxCell>
        <mxCell id="zYvY3kyovHQD-HebnR98-38" value="" style="html=1;jettySize=18;whiteSpace=wrap;fontSize=13;strokeColor=#3a414a;strokeOpacity=100;strokeWidth=0.8;rounded=1;arcSize=12;edgeStyle=orthogonalEdgeStyle;startArrow=none;endArrow=block;endFill=1;exitX=-0.004;exitY=0.5;exitPerimeter=0;entryX=1.004;entryY=0.5;entryPerimeter=0;lucidId=pCKO12hCevFc;" edge="1" parent="1" source="zYvY3kyovHQD-HebnR98-37" target="zYvY3kyovHQD-HebnR98-36">
          <mxGeometry width="100" height="100" relative="1" as="geometry">
            <Array as="points" />
          </mxGeometry>
        </mxCell>
        <mxCell id="zYvY3kyovHQD-HebnR98-39" value="&amp;lt;Words /&amp;gt;" style="html=1;overflow=block;blockSpacing=1;whiteSpace=wrap;fontSize=16.7;align=left;spacing=9;strokeColor=#282c33;strokeOpacity=100;fillOpacity=100;rounded=1;absoluteArcSize=1;arcSize=9;fillColor=#ffffff;strokeWidth=1.5;lucidId=sCKOwXh5Eu39;" vertex="1" parent="1">
          <mxGeometry x="821" y="365" width="209" height="35" as="geometry" />
        </mxCell>
        <mxCell id="zYvY3kyovHQD-HebnR98-40" value="/words" style="html=1;overflow=block;blockSpacing=1;whiteSpace=wrap;fontSize=16.7;fontColor=#3a414a;align=left;spacing=9;verticalAlign=top;strokeColor=#282c33;strokeOpacity=100;fillOpacity=100;rounded=1;absoluteArcSize=1;arcSize=9;fillColor=#ffffff;strokeWidth=1.5;lucidId=_CKOsthbxMBv;" vertex="1" parent="1">
          <mxGeometry x="1128" y="394" width="213" height="31" as="geometry" />
        </mxCell>
        <mxCell id="zYvY3kyovHQD-HebnR98-41" value="" style="html=1;jettySize=18;whiteSpace=wrap;fontSize=13;strokeColor=#3a414a;strokeOpacity=100;strokeWidth=0.8;rounded=1;arcSize=12;edgeStyle=orthogonalEdgeStyle;startArrow=none;endArrow=block;endFill=1;exitX=-0.004;exitY=0.5;exitPerimeter=0;entryX=1.004;entryY=0.5;entryPerimeter=0;lucidId=iDKOWMgk876L;" edge="1" parent="1" source="zYvY3kyovHQD-HebnR98-40" target="zYvY3kyovHQD-HebnR98-39">
          <mxGeometry width="100" height="100" relative="1" as="geometry">
            <Array as="points" />
          </mxGeometry>
        </mxCell>
        <mxCell id="zYvY3kyovHQD-HebnR98-42" value="&amp;lt;WordShow /&amp;gt;" style="html=1;overflow=block;blockSpacing=1;whiteSpace=wrap;fontSize=16.7;align=left;spacing=9;strokeColor=#282c33;strokeOpacity=100;fillOpacity=100;rounded=1;absoluteArcSize=1;arcSize=9;fillColor=#ffffff;strokeWidth=1.5;lucidId=zDKONZjOZeha;" vertex="1" parent="1">
          <mxGeometry x="821" y="410" width="209" height="35" as="geometry" />
        </mxCell>
        <mxCell id="zYvY3kyovHQD-HebnR98-43" value="/words/:id" style="html=1;overflow=block;blockSpacing=1;whiteSpace=wrap;fontSize=16.7;fontColor=#3a414a;align=left;spacing=9;verticalAlign=top;strokeColor=#282c33;strokeOpacity=100;fillOpacity=100;rounded=1;absoluteArcSize=1;arcSize=9;fillColor=#ffffff;strokeWidth=1.5;lucidId=MDKOJnG89am4;" vertex="1" parent="1">
          <mxGeometry x="1128" y="435" width="213" height="31" as="geometry" />
        </mxCell>
        <mxCell id="zYvY3kyovHQD-HebnR98-44" value="" style="html=1;jettySize=18;whiteSpace=wrap;fontSize=13;strokeColor=#3a414a;strokeOpacity=100;strokeWidth=0.8;rounded=1;arcSize=12;edgeStyle=orthogonalEdgeStyle;startArrow=none;endArrow=block;endFill=1;exitX=-0.004;exitY=0.5;exitPerimeter=0;entryX=1.004;entryY=0.5;entryPerimeter=0;lucidId=UDKOpb.jXet_;" edge="1" parent="1" source="zYvY3kyovHQD-HebnR98-43" target="zYvY3kyovHQD-HebnR98-42">
          <mxGeometry width="100" height="100" relative="1" as="geometry">
            <Array as="points" />
          </mxGeometry>
        </mxCell>
        <mxCell id="zYvY3kyovHQD-HebnR98-45" value="&amp;lt;Groups /&amp;gt;" style="html=1;overflow=block;blockSpacing=1;whiteSpace=wrap;fontSize=16.7;align=left;spacing=9;strokeColor=#282c33;strokeOpacity=100;fillOpacity=100;rounded=1;absoluteArcSize=1;arcSize=9;fillColor=#ffffff;strokeWidth=1.5;lucidId=WDKO-Fepw_Yv;" vertex="1" parent="1">
          <mxGeometry x="821" y="456" width="209" height="35" as="geometry" />
        </mxCell>
        <mxCell id="zYvY3kyovHQD-HebnR98-46" value="/groups" style="html=1;overflow=block;blockSpacing=1;whiteSpace=wrap;fontSize=16.7;fontColor=#3a414a;align=left;spacing=9;verticalAlign=top;strokeColor=#282c33;strokeOpacity=100;fillOpacity=100;rounded=1;absoluteArcSize=1;arcSize=9;fillColor=#ffffff;strokeWidth=1.5;lucidId=0DKO3iabdH6T;" vertex="1" parent="1">
          <mxGeometry x="1128" y="475" width="213" height="31" as="geometry" />
        </mxCell>
        <mxCell id="zYvY3kyovHQD-HebnR98-47" value="" style="html=1;jettySize=18;whiteSpace=wrap;fontSize=13;strokeColor=#3a414a;strokeOpacity=100;strokeWidth=0.8;rounded=1;arcSize=12;edgeStyle=orthogonalEdgeStyle;startArrow=none;endArrow=block;endFill=1;exitX=-0.004;exitY=0.5;exitPerimeter=0;entryX=1.004;entryY=0.5;entryPerimeter=0;lucidId=9DKO_UMb7ui2;" edge="1" parent="1" source="zYvY3kyovHQD-HebnR98-46" target="zYvY3kyovHQD-HebnR98-45">
          <mxGeometry width="100" height="100" relative="1" as="geometry">
            <Array as="points" />
          </mxGeometry>
        </mxCell>
        <mxCell id="zYvY3kyovHQD-HebnR98-48" value="&amp;lt;GroupShow /&amp;gt;" style="html=1;overflow=block;blockSpacing=1;whiteSpace=wrap;fontSize=16.7;align=left;spacing=9;strokeColor=#282c33;strokeOpacity=100;fillOpacity=100;rounded=1;absoluteArcSize=1;arcSize=9;fillColor=#ffffff;strokeWidth=1.5;lucidId=fLKOuQ2nt3y7;" vertex="1" parent="1">
          <mxGeometry x="821" y="500" width="209" height="35" as="geometry" />
        </mxCell>
        <mxCell id="zYvY3kyovHQD-HebnR98-49" value="/groups/:id" style="html=1;overflow=block;blockSpacing=1;whiteSpace=wrap;fontSize=16.7;fontColor=#3a414a;align=left;spacing=9;verticalAlign=top;strokeColor=#282c33;strokeOpacity=100;fillOpacity=100;rounded=1;absoluteArcSize=1;arcSize=9;fillColor=#ffffff;strokeWidth=1.5;lucidId=fLKO7fhn6X5T;" vertex="1" parent="1">
          <mxGeometry x="1128" y="516" width="213" height="31" as="geometry" />
        </mxCell>
        <mxCell id="zYvY3kyovHQD-HebnR98-50" value="" style="html=1;jettySize=18;whiteSpace=wrap;fontSize=13;strokeColor=#3a414a;strokeOpacity=100;strokeWidth=0.8;rounded=1;arcSize=12;edgeStyle=orthogonalEdgeStyle;startArrow=none;endArrow=block;endFill=1;exitX=-0.004;exitY=0.5;exitPerimeter=0;entryX=1.004;entryY=0.5;entryPerimeter=0;lucidId=GLKO4wOe4_Sc;" edge="1" parent="1" source="zYvY3kyovHQD-HebnR98-49" target="zYvY3kyovHQD-HebnR98-48">
          <mxGeometry width="100" height="100" relative="1" as="geometry">
            <Array as="points" />
          </mxGeometry>
        </mxCell>
        <mxCell id="zYvY3kyovHQD-HebnR98-51" value="&amp;lt;Sessions /&amp;gt;" style="html=1;overflow=block;blockSpacing=1;whiteSpace=wrap;fontSize=16.7;align=left;spacing=9;strokeColor=#282c33;strokeOpacity=100;fillOpacity=100;rounded=1;absoluteArcSize=1;arcSize=9;fillColor=#ffffff;strokeWidth=1.5;lucidId=eNKOWBgEkFni;" vertex="1" parent="1">
          <mxGeometry x="1115" y="543" width="209" height="35" as="geometry" />
        </mxCell>
        <mxCell id="zYvY3kyovHQD-HebnR98-52" value="/sessions" style="html=1;overflow=block;blockSpacing=1;whiteSpace=wrap;fontSize=16.7;fontColor=#3a414a;align=left;spacing=9;verticalAlign=top;strokeColor=#282c33;strokeOpacity=100;fillOpacity=100;rounded=1;absoluteArcSize=1;arcSize=9;fillColor=#ffffff;strokeWidth=1.5;lucidId=eNKO.iIfbZ~M;" vertex="1" parent="1">
          <mxGeometry x="1128" y="559" width="213" height="31" as="geometry" />
        </mxCell>
        <mxCell id="zYvY3kyovHQD-HebnR98-53" value="" style="html=1;jettySize=18;whiteSpace=wrap;fontSize=13;strokeColor=#3a414a;strokeOpacity=100;strokeWidth=0.8;rounded=1;arcSize=12;edgeStyle=orthogonalEdgeStyle;startArrow=none;endArrow=block;endFill=1;exitX=0.5;exitY=1.024;exitPerimeter=0;entryX=0.5;entryY=1.022;entryPerimeter=0;lucidId=bOKOF_glu-dL;" edge="1" parent="1" source="zYvY3kyovHQD-HebnR98-52" target="zYvY3kyovHQD-HebnR98-51">
          <mxGeometry width="100" height="100" relative="1" as="geometry">
            <Array as="points" />
          </mxGeometry>
        </mxCell>
        <mxCell id="zYvY3kyovHQD-HebnR98-54" value="&amp;lt;StudySessionShow /&amp;gt;" style="html=1;overflow=block;blockSpacing=1;whiteSpace=wrap;fontSize=16.7;align=left;spacing=9;strokeColor=#282c33;strokeOpacity=100;fillOpacity=100;rounded=1;absoluteArcSize=1;arcSize=9;fillColor=#ffffff;strokeWidth=1.5;lucidId=hOKOEZ3QLs71;" vertex="1" parent="1">
          <mxGeometry x="821" y="590" width="209" height="35" as="geometry" />
        </mxCell>
        <mxCell id="zYvY3kyovHQD-HebnR98-55" value="/sessions/:id" style="html=1;overflow=block;blockSpacing=1;whiteSpace=wrap;fontSize=16.7;fontColor=#3a414a;align=left;spacing=9;verticalAlign=top;strokeColor=#282c33;strokeOpacity=100;fillOpacity=100;rounded=1;absoluteArcSize=1;arcSize=9;fillColor=#ffffff;strokeWidth=1.5;lucidId=iSKOX-lNZZd4;" vertex="1" parent="1">
          <mxGeometry x="1128" y="604" width="213" height="31" as="geometry" />
        </mxCell>
        <mxCell id="zYvY3kyovHQD-HebnR98-56" value="" style="html=1;jettySize=18;whiteSpace=wrap;fontSize=13;strokeColor=#3a414a;strokeOpacity=100;strokeWidth=0.8;rounded=1;arcSize=12;edgeStyle=orthogonalEdgeStyle;startArrow=none;endArrow=block;endFill=1;exitX=-0.004;exitY=0.5;exitPerimeter=0;entryX=1.004;entryY=0.408;entryPerimeter=0;lucidId=sSKOhpBvle3B;" edge="1" parent="1" source="zYvY3kyovHQD-HebnR98-55" target="zYvY3kyovHQD-HebnR98-54">
          <mxGeometry width="100" height="100" relative="1" as="geometry">
            <Array as="points" />
          </mxGeometry>
        </mxCell>
        <mxCell id="zYvY3kyovHQD-HebnR98-57" value="&amp;lt;Settings /&amp;gt;" style="html=1;overflow=block;blockSpacing=1;whiteSpace=wrap;fontSize=16.7;align=left;spacing=9;strokeColor=#282c33;strokeOpacity=100;fillOpacity=100;rounded=1;absoluteArcSize=1;arcSize=9;fillColor=#ffffff;strokeWidth=1.5;lucidId=cTKONjF~-AOH;" vertex="1" parent="1">
          <mxGeometry x="821" y="635" width="209" height="35" as="geometry" />
        </mxCell>
        <mxCell id="zYvY3kyovHQD-HebnR98-58" value="/settings" style="html=1;overflow=block;blockSpacing=1;whiteSpace=wrap;fontSize=16.7;fontColor=#3a414a;align=left;spacing=9;verticalAlign=top;strokeColor=#282c33;strokeOpacity=100;fillOpacity=100;rounded=1;absoluteArcSize=1;arcSize=9;fillColor=#ffffff;strokeWidth=1.5;lucidId=cTKOZ5g0M3H5;" vertex="1" parent="1">
          <mxGeometry x="1128" y="648" width="213" height="31" as="geometry" />
        </mxCell>
        <mxCell id="zYvY3kyovHQD-HebnR98-59" value="" style="html=1;jettySize=18;whiteSpace=wrap;fontSize=13;strokeColor=#3a414a;strokeOpacity=100;strokeWidth=0.8;rounded=1;arcSize=12;edgeStyle=orthogonalEdgeStyle;startArrow=none;endArrow=block;endFill=1;exitX=-0.004;exitY=0.5;exitPerimeter=0;entryX=1.004;entryY=0.5;entryPerimeter=0;lucidId=nTKO.a89EYzl;" edge="1" parent="1" source="zYvY3kyovHQD-HebnR98-58" target="zYvY3kyovHQD-HebnR98-57">
          <mxGeometry width="100" height="100" relative="1" as="geometry">
            <Array as="points" />
          </mxGeometry>
        </mxCell>
        <mxCell id="zYvY3kyovHQD-HebnR98-60" value="" style="html=1;jettySize=18;whiteSpace=wrap;fontSize=13;strokeColor=#3a414a;strokeOpacity=100;strokeWidth=0.8;rounded=1;arcSize=12;edgeStyle=orthogonalEdgeStyle;startArrow=none;endArrow=block;endFill=1;entryX=-0.004;entryY=0.22;entryPerimeter=0;lucidId=1TKOBSDk5iqM;" edge="1" parent="1" target="zYvY3kyovHQD-HebnR98-25">
          <mxGeometry width="100" height="100" relative="1" as="geometry">
            <Array as="points" />
            <mxPoint as="sourcePoint" />
          </mxGeometry>
        </mxCell>
        <mxCell id="zYvY3kyovHQD-HebnR98-61" value="" style="html=1;jettySize=18;whiteSpace=wrap;fontSize=13;strokeColor=#3a414a;strokeOpacity=100;strokeWidth=0.8;rounded=1;arcSize=12;edgeStyle=orthogonalEdgeStyle;startArrow=none;endArrow=block;endFill=1;exitX=1.002;exitY=0.224;exitPerimeter=0;entryX=-0.004;entryY=0.726;entryPerimeter=0;lucidId=8TKOfR-kyiej;" edge="1" parent="1" source="zYvY3kyovHQD-HebnR98-7" target="zYvY3kyovHQD-HebnR98-25">
          <mxGeometry width="100" height="100" relative="1" as="geometry">
            <Array as="points" />
          </mxGeometry>
        </mxCell>
        <mxCell id="zYvY3kyovHQD-HebnR98-62" value="init_db" style="html=1;overflow=block;blockSpacing=1;whiteSpace=wrap;fontSize=16.7;align=left;spacing=9;verticalAlign=top;rounded=1;absoluteArcSize=1;arcSize=9;strokeWidth=NaN;lucidId=AsKOTFm6TnMT;" vertex="1" parent="1">
          <mxGeometry x="94" y="578" width="119" height="34" as="geometry" />
        </mxCell>
        <mxCell id="zYvY3kyovHQD-HebnR98-63" value="study_activities.py" style="html=1;overflow=block;blockSpacing=1;whiteSpace=wrap;fontSize=16.7;fontColor=#3a414a;align=left;spacing=9;verticalAlign=top;strokeColor=#282c33;strokeOpacity=100;fillOpacity=100;rounded=1;absoluteArcSize=1;arcSize=9;fillColor=#c3f7c8;strokeWidth=1.5;lucidId=uUKOYHNylJ2a;" vertex="1" parent="1">
          <mxGeometry x="275" y="364" width="309" height="195" as="geometry" />
        </mxCell>
        <mxCell id="zYvY3kyovHQD-HebnR98-64" value="GET /api/study-activities/:id" style="html=1;overflow=block;blockSpacing=1;whiteSpace=wrap;fontSize=16.7;align=left;spacing=9;verticalAlign=top;rounded=1;absoluteArcSize=1;arcSize=9;strokeWidth=NaN;lucidId=uUKOr8YPslIA;" vertex="1" parent="1">
          <mxGeometry x="292" y="450" width="313" height="39" as="geometry" />
        </mxCell>
        <mxCell id="zYvY3kyovHQD-HebnR98-65" value="GET /api/study-activities/:id/sessions" style="html=1;overflow=block;blockSpacing=1;whiteSpace=wrap;fontSize=16.7;align=left;spacing=9;verticalAlign=top;rounded=1;absoluteArcSize=1;arcSize=9;strokeWidth=NaN;lucidId=uUKO25diEyK9;" vertex="1" parent="1">
          <mxGeometry x="292" y="499" width="313" height="39" as="geometry" />
        </mxCell>
        <mxCell id="zYvY3kyovHQD-HebnR98-66" value="" style="html=1;jettySize=18;whiteSpace=wrap;fontSize=13;strokeColor=#3a414a;strokeOpacity=100;strokeWidth=0.8;rounded=1;arcSize=12;edgeStyle=orthogonalEdgeStyle;startArrow=none;endArrow=block;endFill=1;entryX=-0.004;entryY=0.5;entryPerimeter=0;lucidId=gXKO23VHKUYk;" edge="1" parent="1" target="zYvY3kyovHQD-HebnR98-26">
          <mxGeometry width="100" height="100" relative="1" as="geometry">
            <Array as="points" />
            <mxPoint as="sourcePoint" />
          </mxGeometry>
        </mxCell>
        <mxCell id="zYvY3kyovHQD-HebnR98-67" value="" style="html=1;jettySize=18;whiteSpace=wrap;fontSize=13;strokeColor=#3a414a;strokeOpacity=100;strokeWidth=0.8;rounded=1;arcSize=12;edgeStyle=orthogonalEdgeStyle;startArrow=none;endArrow=block;endFill=1;exitX=1.002;exitY=0.5;exitPerimeter=0;entryX=-0.004;entryY=0.5;entryPerimeter=0;lucidId=CXKO5jt~TmzV;" edge="1" parent="1" source="zYvY3kyovHQD-HebnR98-64" target="zYvY3kyovHQD-HebnR98-27">
          <mxGeometry width="100" height="100" relative="1" as="geometry">
            <Array as="points" />
          </mxGeometry>
        </mxCell>
        <mxCell id="zYvY3kyovHQD-HebnR98-68" value="" style="html=1;jettySize=18;whiteSpace=wrap;fontSize=13;strokeColor=#3a414a;strokeOpacity=100;strokeWidth=0.8;rounded=1;arcSize=12;edgeStyle=orthogonalEdgeStyle;startArrow=none;endArrow=block;endFill=1;exitX=1.002;exitY=0.5;exitPerimeter=0;entryX=-0.004;entryY=0.804;entryPerimeter=0;lucidId=LXKOa23U2UY9;" edge="1" parent="1" source="zYvY3kyovHQD-HebnR98-65" target="zYvY3kyovHQD-HebnR98-27">
          <mxGeometry width="100" height="100" relative="1" as="geometry">
            <Array as="points" />
          </mxGeometry>
        </mxCell>
        <mxCell id="zYvY3kyovHQD-HebnR98-69" value="GET /groups/:id" style="html=1;overflow=block;blockSpacing=1;whiteSpace=wrap;fontSize=16.7;align=left;spacing=9;verticalAlign=top;rounded=1;absoluteArcSize=1;arcSize=9;strokeWidth=NaN;lucidId=1XKOoYCnb1Xw;" vertex="1" parent="1">
          <mxGeometry x="292" y="826" width="313" height="39" as="geometry" />
        </mxCell>
        <mxCell id="zYvY3kyovHQD-HebnR98-70" value="GET /groups/:id/words" style="html=1;overflow=block;blockSpacing=1;whiteSpace=wrap;fontSize=16.7;align=left;spacing=9;verticalAlign=top;rounded=1;absoluteArcSize=1;arcSize=9;strokeWidth=NaN;lucidId=1XKOnMCJqQwN;" vertex="1" parent="1">
          <mxGeometry x="292" y="876" width="313" height="39" as="geometry" />
        </mxCell>
        <mxCell id="zYvY3kyovHQD-HebnR98-71" value="&lt;div style=&quot;display: flex; justify-content: flex-start; text-align: left; align-items: baseline; font-size: 0; line-height: 1.25;margin-top: -2px;&quot;&gt;&lt;span&gt;&lt;span style=&quot;font-size:16.7px;color:#3a414a;&quot;&gt;GET /groups/:id/words/&lt;/span&gt;&lt;span style=&quot;font-size:16.7px;color:#1071e5;font-weight: bold;&quot;&gt;raw&lt;/span&gt;&lt;/span&gt;&lt;/div&gt;" style="html=1;overflow=block;blockSpacing=1;whiteSpace=wrap;fontSize=13;spacing=9;verticalAlign=top;strokeColor=#282c33;strokeOpacity=100;fillOpacity=100;rounded=1;absoluteArcSize=1;arcSize=9;fillColor=#ffffff;strokeWidth=1.5;lucidId=1XKOxYDI1Hnp;" vertex="1" parent="1">
          <mxGeometry x="292" y="977" width="313" height="39" as="geometry" />
        </mxCell>
        <mxCell id="zYvY3kyovHQD-HebnR98-72" value="GET /groups/:id/study_sessions" style="html=1;overflow=block;blockSpacing=1;whiteSpace=wrap;fontSize=16.7;align=left;spacing=9;verticalAlign=top;rounded=1;absoluteArcSize=1;arcSize=9;strokeWidth=NaN;lucidId=1XKOpxQWDMmV;" vertex="1" parent="1">
          <mxGeometry x="292" y="926" width="313" height="39" as="geometry" />
        </mxCell>
        <mxCell id="zYvY3kyovHQD-HebnR98-73" value="GET /groups" style="html=1;overflow=block;blockSpacing=1;whiteSpace=wrap;fontSize=16.7;align=left;spacing=9;verticalAlign=top;rounded=1;absoluteArcSize=1;arcSize=9;strokeWidth=NaN;lucidId=1XKOmPYP4Wfu;" vertex="1" parent="1">
          <mxGeometry x="292" y="776" width="313" height="39" as="geometry" />
        </mxCell>
        <mxCell id="zYvY3kyovHQD-HebnR98-74" value="" style="html=1;jettySize=18;whiteSpace=wrap;fontSize=13;strokeColor=#3a414a;strokeOpacity=100;strokeWidth=0.8;rounded=1;arcSize=12;edgeStyle=orthogonalEdgeStyle;startArrow=none;endArrow=block;endFill=1;exitX=1.002;exitY=0.5;exitPerimeter=0;entryX=-0.004;entryY=0.5;entryPerimeter=0;lucidId=lYKOEU6moJtT;" edge="1" parent="1" source="zYvY3kyovHQD-HebnR98-8" target="zYvY3kyovHQD-HebnR98-39">
          <mxGeometry width="100" height="100" relative="1" as="geometry">
            <Array as="points" />
          </mxGeometry>
        </mxCell>
        <mxCell id="zYvY3kyovHQD-HebnR98-75" value="" style="html=1;jettySize=18;whiteSpace=wrap;fontSize=13;strokeColor=#3a414a;strokeOpacity=100;strokeWidth=0.8;rounded=1;arcSize=12;edgeStyle=orthogonalEdgeStyle;startArrow=none;endArrow=block;endFill=1;exitX=1.002;exitY=0.5;exitPerimeter=0;entryX=-0.004;entryY=0.5;entryPerimeter=0;lucidId=RYKOz_y0colQ;" edge="1" parent="1" source="zYvY3kyovHQD-HebnR98-11" target="zYvY3kyovHQD-HebnR98-42">
          <mxGeometry width="100" height="100" relative="1" as="geometry">
            <Array as="points" />
          </mxGeometry>
        </mxCell>
        <mxCell id="zYvY3kyovHQD-HebnR98-76" value="" style="html=1;jettySize=18;whiteSpace=wrap;fontSize=13;strokeColor=#3a414a;strokeOpacity=100;strokeWidth=0.8;rounded=1;arcSize=12;edgeStyle=orthogonalEdgeStyle;startArrow=none;endArrow=block;endFill=1;exitX=1.002;exitY=0.5;exitPerimeter=0;entryX=-0.004;entryY=0.5;entryPerimeter=0;lucidId=g0KOCL3v6IN3;" edge="1" parent="1" source="zYvY3kyovHQD-HebnR98-73" target="zYvY3kyovHQD-HebnR98-45">
          <mxGeometry width="100" height="100" relative="1" as="geometry">
            <Array as="points" />
          </mxGeometry>
        </mxCell>
        <mxCell id="zYvY3kyovHQD-HebnR98-77" value="" style="html=1;jettySize=18;whiteSpace=wrap;fontSize=13;strokeColor=#3a414a;strokeOpacity=100;strokeWidth=0.8;rounded=1;arcSize=12;edgeStyle=orthogonalEdgeStyle;startArrow=none;endArrow=block;endFill=1;exitX=1.002;exitY=0.5;exitPerimeter=0;entryX=-0.004;entryY=0.156;entryPerimeter=0;lucidId=r0KO7j8MGtQy;" edge="1" parent="1" source="zYvY3kyovHQD-HebnR98-69" target="zYvY3kyovHQD-HebnR98-48">
          <mxGeometry width="100" height="100" relative="1" as="geometry">
            <Array as="points" />
          </mxGeometry>
        </mxCell>
        <mxCell id="zYvY3kyovHQD-HebnR98-78" value="" style="html=1;jettySize=18;whiteSpace=wrap;fontSize=13;strokeColor=#3a414a;strokeOpacity=100;strokeWidth=0.8;rounded=1;arcSize=12;edgeStyle=orthogonalEdgeStyle;startArrow=none;endArrow=block;endFill=1;exitX=1.002;exitY=0.5;exitPerimeter=0;entryX=-0.004;entryY=0.5;entryPerimeter=0;lucidId=M0KOFI-Ghp9U;" edge="1" parent="1" source="zYvY3kyovHQD-HebnR98-70" target="zYvY3kyovHQD-HebnR98-48">
          <mxGeometry width="100" height="100" relative="1" as="geometry">
            <Array as="points" />
          </mxGeometry>
        </mxCell>
        <mxCell id="zYvY3kyovHQD-HebnR98-79" value="" style="html=1;jettySize=18;whiteSpace=wrap;fontSize=13;strokeColor=#3a414a;strokeOpacity=100;strokeWidth=0.8;rounded=1;arcSize=12;edgeStyle=orthogonalEdgeStyle;startArrow=none;endArrow=block;endFill=1;exitX=1.002;exitY=0.5;exitPerimeter=0;entryX=-0.004;entryY=0.821;entryPerimeter=0;lucidId=T0KODlSAzREL;" edge="1" parent="1" source="zYvY3kyovHQD-HebnR98-72" target="zYvY3kyovHQD-HebnR98-48">
          <mxGeometry width="100" height="100" relative="1" as="geometry">
            <Array as="points" />
          </mxGeometry>
        </mxCell>
        <mxCell id="zYvY3kyovHQD-HebnR98-80" value="" style="html=1;jettySize=18;whiteSpace=wrap;fontSize=13;strokeColor=#3a414a;strokeOpacity=100;strokeWidth=0.8;rounded=1;arcSize=12;edgeStyle=orthogonalEdgeStyle;startArrow=none;endArrow=block;endFill=1;exitX=1.002;exitY=0.5;exitPerimeter=0;entryX=-0.004;entryY=0.5;entryPerimeter=0;lucidId=70KOgvlHgAkv;" edge="1" parent="1" source="zYvY3kyovHQD-HebnR98-5" target="zYvY3kyovHQD-HebnR98-51">
          <mxGeometry width="100" height="100" relative="1" as="geometry">
            <Array as="points" />
          </mxGeometry>
        </mxCell>
        <mxCell id="zYvY3kyovHQD-HebnR98-81" value="" style="html=1;jettySize=18;whiteSpace=wrap;fontSize=13;strokeColor=#3a414a;strokeOpacity=100;strokeWidth=0.8;rounded=1;arcSize=12;edgeStyle=orthogonalEdgeStyle;startArrow=none;endArrow=block;endFill=1;exitX=1.002;exitY=0.5;exitPerimeter=0;entryX=-0.004;entryY=0.5;entryPerimeter=0;lucidId=~0KO3ND5FKvo;" edge="1" parent="1" source="zYvY3kyovHQD-HebnR98-6" target="zYvY3kyovHQD-HebnR98-54">
          <mxGeometry width="100" height="100" relative="1" as="geometry">
            <Array as="points" />
          </mxGeometry>
        </mxCell>
        <mxCell id="zYvY3kyovHQD-HebnR98-82" value="" style="html=1;jettySize=18;whiteSpace=wrap;fontSize=13;strokeColor=#1071e5;strokeOpacity=100;strokeWidth=3;rounded=1;arcSize=12;edgeStyle=orthogonalEdgeStyle;startArrow=none;endArrow=block;endFill=1;exitX=1.002;exitY=0.5;exitPerimeter=0;entryX=-0.004;entryY=0.384;entryPerimeter=0;lucidId=o1KOtRsq2-0h;" edge="1" parent="1" source="zYvY3kyovHQD-HebnR98-71" target="zYvY3kyovHQD-HebnR98-86">
          <mxGeometry width="100" height="100" relative="1" as="geometry">
            <Array as="points" />
          </mxGeometry>
        </mxCell>
        <mxCell id="zYvY3kyovHQD-HebnR98-83" value="" style="html=1;jettySize=18;whiteSpace=wrap;fontSize=13;strokeColor=#e81313;strokeOpacity=100;strokeWidth=3;rounded=1;arcSize=12;edgeStyle=orthogonalEdgeStyle;startArrow=block;startFill=1;endArrow=none;exitX=1.002;exitY=0.5;exitPerimeter=0;entryX=-0.004;entryY=0.5;entryPerimeter=0;lucidId=u1KOc8vCjnyw;" edge="1" parent="1" source="zYvY3kyovHQD-HebnR98-4" target="zYvY3kyovHQD-HebnR98-36">
          <mxGeometry width="100" height="100" relative="1" as="geometry">
            <Array as="points" />
          </mxGeometry>
        </mxCell>
        <mxCell id="zYvY3kyovHQD-HebnR98-84" value="&lt;div style=&quot;display: flex; justify-content: flex-start; text-align: left; align-items: baseline; font-size: 0; line-height: 1.25;margin-top: -2px;&quot;&gt;&lt;span&gt;&lt;span style=&quot;font-size:16.7px;color:#008573;font-weight: bold;&quot;&gt;POST&lt;/span&gt;&lt;span style=&quot;font-size:16.7px;color:#3a414a;&quot;&gt; /study_sessions/:id/review&lt;/span&gt;&lt;/span&gt;&lt;/div&gt;" style="html=1;overflow=block;blockSpacing=1;whiteSpace=wrap;fontSize=13;spacing=9;verticalAlign=top;strokeColor=#282c33;strokeOpacity=100;fillOpacity=100;rounded=1;absoluteArcSize=1;arcSize=9;fillColor=#ffffff;strokeWidth=1.5;lucidId=t-KOP_sV5qEA;" vertex="1" parent="1">
          <mxGeometry x="292" y="1264" width="313" height="39" as="geometry" />
        </mxCell>
        <mxCell id="zYvY3kyovHQD-HebnR98-85" value="&lt;div style=&quot;display: flex; justify-content: flex-start; text-align: left; align-items: baseline; font-size: 0; line-height: 1.25;margin-top: -2px;&quot;&gt;&lt;span&gt;&lt;span style=&quot;font-size:16.7px;color:#3a414a;font-weight: bold;&quot;&gt;Relational Single File Database&lt;/span&gt;&lt;span style=&quot;font-size:16.7px;color:#3a414a;&quot;&gt;&#xa;&lt;/span&gt;&lt;/span&gt;&lt;/div&gt;&lt;div style=&quot;display: flex; justify-content: flex-start; text-align: left; align-items: baseline; font-size: 0; line-height: 1.25;margin-top: -2px;&quot;&gt;&lt;span&gt;&lt;span style=&quot;font-size:16.7px;color:#3a414a;&quot;&gt;Sqlite3 DB&lt;/span&gt;&lt;span style=&quot;font-size:16.7px;color:#3a414a;&quot;&gt;&#xa;&lt;/span&gt;&lt;/span&gt;&lt;/div&gt;&lt;div style=&quot;display: flex; justify-content: center; text-align: center; align-items: baseline; font-size: 0; line-height: 1.25;margin-top: -2px;&quot;&gt;&lt;span&gt;&lt;span style=&quot;font-size:16.7px;color:#3a414a;&quot;&gt;&lt;span style=&quot;font-size:16.7px;color:#3a414a;&quot;&gt;words.db&lt;/span&gt;&lt;/span&gt;&lt;/span&gt;&lt;/div&gt;" style="html=1;overflow=block;blockSpacing=1;whiteSpace=wrap;fontSize=13;spacing=9;verticalAlign=top;strokeColor=#282c33;strokeOpacity=100;fillOpacity=100;rounded=1;absoluteArcSize=1;arcSize=9;fillColor=#fcfcca;strokeWidth=1.5;lucidId=nJ1OYwoAXesP;" vertex="1" parent="1">
          <mxGeometry x="-540" y="70" width="240" height="125" as="geometry" />
        </mxCell>
        <mxCell id="zYvY3kyovHQD-HebnR98-86" value="&lt;div style=&quot;display: flex; justify-content: flex-start; text-align: left; align-items: baseline; font-size: 0; line-height: 1.25;margin-top: -2px;&quot;&gt;&lt;span&gt;&lt;span style=&quot;font-size:16.7px;&quot;&gt;&lt;span style=&quot;font-size:16.7px;&quot;&gt;Typing Tutor &lt;/span&gt;&lt;span style=&quot;font-size:16.7px;font-weight: bold;&quot;&gt;:8080&lt;/span&gt;&lt;/span&gt;&lt;/span&gt;&lt;/div&gt;" style="html=1;overflow=block;blockSpacing=1;whiteSpace=wrap;fontSize=13;spacing=9;verticalAlign=top;rounded=1;absoluteArcSize=1;arcSize=9;strokeWidth=NaN;lucidId=B1KOtwdTqbDg;" vertex="1" parent="1">
          <mxGeometry x="1005" y="956" width="206" height="107" as="geometry" />
        </mxCell>
        <mxCell id="zYvY3kyovHQD-HebnR98-87" value="" style="html=1;jettySize=18;whiteSpace=wrap;fontSize=13;strokeColor=#3a414a;strokeOpacity=100;strokeWidth=2.3;rounded=1;arcSize=12;edgeStyle=orthogonalEdgeStyle;startArrow=block;startFill=1;endArrow=none;exitX=0.5;exitY=-0.007;exitPerimeter=0;entryX=1.004;entryY=0.794;entryPerimeter=0;lucidId=Q_KOucFcf4bl;" edge="1" parent="1" source="zYvY3kyovHQD-HebnR98-86" target="zYvY3kyovHQD-HebnR98-36">
          <mxGeometry width="100" height="100" relative="1" as="geometry">
            <Array as="points" />
          </mxGeometry>
        </mxCell>
        <mxCell id="zYvY3kyovHQD-HebnR98-88" value="Launch and pass session_id, word_id" style="text;html=1;resizable=0;labelBackgroundColor=default;align=center;verticalAlign=middle;fontStyle=1;fontColor=#333333;fontSize=13.3;" vertex="1" parent="zYvY3kyovHQD-HebnR98-87">
          <mxGeometry x="-0.5784208169964036" relative="1" as="geometry" />
        </mxCell>
        <mxCell id="zYvY3kyovHQD-HebnR98-89" value="&lt;div style=&quot;display: flex; justify-content: flex-start; text-align: left; align-items: baseline; font-size: 0; line-height: 1.25;margin-top: -2px;&quot;&gt;&lt;span&gt;&lt;span style=&quot;font-size:16.7px;font-weight: bold;&quot;&gt;Learning Game&lt;/span&gt;&lt;span style=&quot;font-size:16.7px;&quot;&gt;&#xa;&lt;/span&gt;&lt;/span&gt;&lt;/div&gt;&lt;div style=&quot;display: flex; justify-content: flex-start; text-align: left; align-items: baseline; font-size: 0; line-height: 1.25;margin-top: -2px;&quot;&gt;&lt;span&gt;&lt;span style=&quot;font-size:16.7px;&quot;&gt;Typing Tutor &lt;/span&gt;&lt;span style=&quot;font-size:16.7px;font-weight: bold;&quot;&gt;:8080&lt;/span&gt;&lt;/span&gt;&lt;/div&gt;" style="html=1;overflow=block;blockSpacing=1;whiteSpace=wrap;fontSize=13;spacing=9;verticalAlign=top;rounded=1;absoluteArcSize=1;arcSize=9;strokeWidth=NaN;lucidId=mL1O19o.YJJ.;" vertex="1" parent="1">
          <mxGeometry x="-86" y="38" width="206" height="107" as="geometry" />
        </mxCell>
        <mxCell id="zYvY3kyovHQD-HebnR98-90" value="" style="html=1;jettySize=18;whiteSpace=wrap;fontSize=13;strokeColor=#3a414a;strokeOpacity=100;strokeWidth=0.8;rounded=1;arcSize=12;edgeStyle=orthogonalEdgeStyle;startArrow=none;endArrow=block;endFill=1;entryX=0.505;entryY=-0.007;entryPerimeter=0;lucidId=XL1OCLhuwXJs;" edge="1" parent="1" target="zYvY3kyovHQD-HebnR98-89">
          <mxGeometry width="100" height="100" relative="1" as="geometry">
            <Array as="points" />
            <mxPoint x="608" as="sourcePoint" />
          </mxGeometry>
        </mxCell>
        <mxCell id="zYvY3kyovHQD-HebnR98-91" value="Launch Game (Study Activity)" style="text;html=1;resizable=0;labelBackgroundColor=default;align=center;verticalAlign=middle;fontStyle=1;fontColor=#333333;fontSize=13.3;" vertex="1" parent="zYvY3kyovHQD-HebnR98-90">
          <mxGeometry x="-0.3824652964150079" relative="1" as="geometry" />
        </mxCell>
      </root>
    </mxGraphModel>
  </diagram>
  <diagram name="System context diagram" id="aN_9jVO7q6sepmwTys5X">
    <mxGraphModel dx="1434" dy="738" grid="1" gridSize="10" guides="1" tooltips="1" connect="1" arrows="1" fold="1" page="1" pageScale="1" pageWidth="827" pageHeight="1169" math="0" shadow="0">
      <root>
        <mxCell id="0" />
        <mxCell id="1" parent="0" />
        <mxCell id="CmUgu9I3wbJfP3efiQkR-6" style="edgeStyle=orthogonalEdgeStyle;rounded=0;orthogonalLoop=1;jettySize=auto;html=1;startArrow=classic;startFill=1;" edge="1" parent="1" source="CmUgu9I3wbJfP3efiQkR-1" target="CmUgu9I3wbJfP3efiQkR-2">
          <mxGeometry relative="1" as="geometry" />
        </mxCell>
        <object placeholders="1" c4Name="Student" c4Type="Person" c4Description="Person who want to learn the language" label="&lt;font style=&quot;font-size: 16px&quot;&gt;&lt;b&gt;%c4Name%&lt;/b&gt;&lt;/font&gt;&lt;div&gt;[%c4Type%]&lt;/div&gt;&lt;br&gt;&lt;div&gt;&lt;font style=&quot;font-size: 11px&quot;&gt;&lt;font color=&quot;#cccccc&quot;&gt;%c4Description%&lt;/font&gt;&lt;/div&gt;" id="CmUgu9I3wbJfP3efiQkR-1">
          <mxCell style="html=1;fontSize=11;dashed=0;whiteSpace=wrap;fillColor=#083F75;strokeColor=#06315C;fontColor=#ffffff;shape=mxgraph.c4.person2;align=center;metaEdit=1;points=[[0.5,0,0],[1,0.5,0],[1,0.75,0],[0.75,1,0],[0.5,1,0],[0.25,1,0],[0,0.75,0],[0,0.5,0]];resizable=0;" vertex="1" parent="1">
            <mxGeometry x="40" y="270" width="200" height="180" as="geometry" />
          </mxCell>
        </object>
        <mxCell id="CmUgu9I3wbJfP3efiQkR-8" style="edgeStyle=orthogonalEdgeStyle;rounded=0;orthogonalLoop=1;jettySize=auto;html=1;startArrow=classic;startFill=1;" edge="1" parent="1" source="CmUgu9I3wbJfP3efiQkR-2" target="CmUgu9I3wbJfP3efiQkR-9">
          <mxGeometry relative="1" as="geometry">
            <mxPoint x="760" y="360" as="targetPoint" />
          </mxGeometry>
        </mxCell>
        <object placeholders="1" c4Name="Teaching application" c4Type="Software System" c4Description="Application to teach a language to a student" label="&lt;font style=&quot;font-size: 16px&quot;&gt;&lt;b&gt;%c4Name%&lt;/b&gt;&lt;/font&gt;&lt;div&gt;[%c4Type%]&lt;/div&gt;&lt;br&gt;&lt;div&gt;&lt;font style=&quot;font-size: 11px&quot;&gt;&lt;font color=&quot;#cccccc&quot;&gt;%c4Description%&lt;/font&gt;&lt;/div&gt;" id="CmUgu9I3wbJfP3efiQkR-2">
          <mxCell style="rounded=1;whiteSpace=wrap;html=1;labelBackgroundColor=none;fillColor=#1061B0;fontColor=#ffffff;align=center;arcSize=10;strokeColor=#0D5091;metaEdit=1;resizable=0;points=[[0.25,0,0],[0.5,0,0],[0.75,0,0],[1,0.25,0],[1,0.5,0],[1,0.75,0],[0.75,1,0],[0.5,1,0],[0.25,1,0],[0,0.75,0],[0,0.5,0],[0,0.25,0]];" vertex="1" parent="1">
            <mxGeometry x="370" y="300" width="240" height="120" as="geometry" />
          </mxCell>
        </object>
        <object placeholders="1" c4Name="LLM system" c4Type="Software System" c4Description="System to help students with their lessons" label="&lt;font style=&quot;font-size: 16px&quot;&gt;&lt;b&gt;%c4Name%&lt;/b&gt;&lt;/font&gt;&lt;div&gt;[%c4Type%]&lt;/div&gt;&lt;br&gt;&lt;div&gt;&lt;font style=&quot;font-size: 11px&quot;&gt;&lt;font color=&quot;#cccccc&quot;&gt;%c4Description%&lt;/font&gt;&lt;/div&gt;" id="CmUgu9I3wbJfP3efiQkR-9">
          <mxCell style="rounded=1;whiteSpace=wrap;html=1;labelBackgroundColor=none;fillColor=#8C8496;fontColor=#ffffff;align=center;arcSize=10;strokeColor=#736782;metaEdit=1;resizable=0;points=[[0.25,0,0],[0.5,0,0],[0.75,0,0],[1,0.25,0],[1,0.5,0],[1,0.75,0],[0.75,1,0],[0.5,1,0],[0.25,1,0],[0,0.75,0],[0,0.5,0],[0,0.25,0]];" vertex="1" parent="1">
            <mxGeometry x="680" y="300" width="240" height="120" as="geometry" />
          </mxCell>
        </object>
        <mxCell id="CmUgu9I3wbJfP3efiQkR-10" value="Legend" style="shape=table;startSize=30;container=1;collapsible=0;childLayout=tableLayout;fontSize=16;align=left;verticalAlign=top;fillColor=none;strokeColor=none;fontColor=#4D4D4D;fontStyle=1;spacingLeft=6;spacing=0;resizable=0;" vertex="1" parent="1">
          <mxGeometry x="40" width="180" height="210" as="geometry" />
        </mxCell>
        <mxCell id="CmUgu9I3wbJfP3efiQkR-11" value="" style="shape=tableRow;horizontal=0;startSize=0;swimlaneHead=0;swimlaneBody=0;strokeColor=inherit;top=0;left=0;bottom=0;right=0;collapsible=0;dropTarget=0;fillColor=none;points=[[0,0.5],[1,0.5]];portConstraint=eastwest;fontSize=12;" vertex="1" parent="CmUgu9I3wbJfP3efiQkR-10">
          <mxGeometry y="30" width="180" height="30" as="geometry" />
        </mxCell>
        <mxCell id="CmUgu9I3wbJfP3efiQkR-12" value="Person" style="shape=partialRectangle;html=1;whiteSpace=wrap;connectable=0;strokeColor=inherit;overflow=hidden;fillColor=#1E4074;top=0;left=0;bottom=0;right=0;pointerEvents=1;fontSize=12;align=left;fontColor=#FFFFFF;gradientColor=none;spacingLeft=10;spacingRight=4;" vertex="1" parent="CmUgu9I3wbJfP3efiQkR-11">
          <mxGeometry width="180" height="30" as="geometry">
            <mxRectangle width="180" height="30" as="alternateBounds" />
          </mxGeometry>
        </mxCell>
        <mxCell id="CmUgu9I3wbJfP3efiQkR-13" value="" style="shape=tableRow;horizontal=0;startSize=0;swimlaneHead=0;swimlaneBody=0;strokeColor=inherit;top=0;left=0;bottom=0;right=0;collapsible=0;dropTarget=0;fillColor=none;points=[[0,0.5],[1,0.5]];portConstraint=eastwest;fontSize=12;" vertex="1" parent="CmUgu9I3wbJfP3efiQkR-10">
          <mxGeometry y="60" width="180" height="30" as="geometry" />
        </mxCell>
        <mxCell id="CmUgu9I3wbJfP3efiQkR-14" value="Software System" style="shape=partialRectangle;html=1;whiteSpace=wrap;connectable=0;strokeColor=inherit;overflow=hidden;fillColor=#3162AF;top=0;left=0;bottom=0;right=0;pointerEvents=1;fontSize=12;align=left;fontColor=#FFFFFF;gradientColor=none;spacingLeft=10;spacingRight=4;" vertex="1" parent="CmUgu9I3wbJfP3efiQkR-13">
          <mxGeometry width="180" height="30" as="geometry">
            <mxRectangle width="180" height="30" as="alternateBounds" />
          </mxGeometry>
        </mxCell>
        <mxCell id="CmUgu9I3wbJfP3efiQkR-15" value="" style="shape=tableRow;horizontal=0;startSize=0;swimlaneHead=0;swimlaneBody=0;strokeColor=inherit;top=0;left=0;bottom=0;right=0;collapsible=0;dropTarget=0;fillColor=none;points=[[0,0.5],[1,0.5]];portConstraint=eastwest;fontSize=12;" vertex="1" parent="CmUgu9I3wbJfP3efiQkR-10">
          <mxGeometry y="90" width="180" height="30" as="geometry" />
        </mxCell>
        <mxCell id="CmUgu9I3wbJfP3efiQkR-16" value="Container" style="shape=partialRectangle;html=1;whiteSpace=wrap;connectable=0;strokeColor=inherit;overflow=hidden;fillColor=#52a2d8;top=0;left=0;bottom=0;right=0;pointerEvents=1;fontSize=12;align=left;fontColor=#FFFFFF;gradientColor=none;spacingLeft=10;spacingRight=4;" vertex="1" parent="CmUgu9I3wbJfP3efiQkR-15">
          <mxGeometry width="180" height="30" as="geometry">
            <mxRectangle width="180" height="30" as="alternateBounds" />
          </mxGeometry>
        </mxCell>
        <mxCell id="CmUgu9I3wbJfP3efiQkR-17" value="" style="shape=tableRow;horizontal=0;startSize=0;swimlaneHead=0;swimlaneBody=0;strokeColor=inherit;top=0;left=0;bottom=0;right=0;collapsible=0;dropTarget=0;fillColor=none;points=[[0,0.5],[1,0.5]];portConstraint=eastwest;fontSize=12;" vertex="1" parent="CmUgu9I3wbJfP3efiQkR-10">
          <mxGeometry y="120" width="180" height="30" as="geometry" />
        </mxCell>
        <mxCell id="CmUgu9I3wbJfP3efiQkR-18" value="Component" style="shape=partialRectangle;html=1;whiteSpace=wrap;connectable=0;strokeColor=inherit;overflow=hidden;fillColor=#7dbef2;top=0;left=0;bottom=0;right=0;pointerEvents=1;fontSize=12;align=left;fontColor=#FFFFFF;gradientColor=none;spacingLeft=10;spacingRight=4;" vertex="1" parent="CmUgu9I3wbJfP3efiQkR-17">
          <mxGeometry width="180" height="30" as="geometry">
            <mxRectangle width="180" height="30" as="alternateBounds" />
          </mxGeometry>
        </mxCell>
        <mxCell id="CmUgu9I3wbJfP3efiQkR-19" value="" style="shape=tableRow;horizontal=0;startSize=0;swimlaneHead=0;swimlaneBody=0;strokeColor=inherit;top=0;left=0;bottom=0;right=0;collapsible=0;dropTarget=0;fillColor=none;points=[[0,0.5],[1,0.5]];portConstraint=eastwest;fontSize=12;" vertex="1" parent="CmUgu9I3wbJfP3efiQkR-10">
          <mxGeometry y="150" width="180" height="30" as="geometry" />
        </mxCell>
        <mxCell id="CmUgu9I3wbJfP3efiQkR-20" value="External Person" style="shape=partialRectangle;html=1;whiteSpace=wrap;connectable=0;strokeColor=inherit;overflow=hidden;fillColor=#6b6477;top=0;left=0;bottom=0;right=0;pointerEvents=1;fontSize=12;align=left;fontColor=#FFFFFF;gradientColor=none;spacingLeft=10;spacingRight=4;" vertex="1" parent="CmUgu9I3wbJfP3efiQkR-19">
          <mxGeometry width="180" height="30" as="geometry">
            <mxRectangle width="180" height="30" as="alternateBounds" />
          </mxGeometry>
        </mxCell>
        <mxCell id="CmUgu9I3wbJfP3efiQkR-21" value="" style="shape=tableRow;horizontal=0;startSize=0;swimlaneHead=0;swimlaneBody=0;strokeColor=inherit;top=0;left=0;bottom=0;right=0;collapsible=0;dropTarget=0;fillColor=none;points=[[0,0.5],[1,0.5]];portConstraint=eastwest;fontSize=12;" vertex="1" parent="CmUgu9I3wbJfP3efiQkR-10">
          <mxGeometry y="180" width="180" height="30" as="geometry" />
        </mxCell>
        <mxCell id="CmUgu9I3wbJfP3efiQkR-22" value="External Software System" style="shape=partialRectangle;html=1;whiteSpace=wrap;connectable=0;strokeColor=inherit;overflow=hidden;fillColor=#8b8496;top=0;left=0;bottom=0;right=0;pointerEvents=1;fontSize=12;align=left;fontColor=#FFFFFF;gradientColor=none;spacingLeft=10;spacingRight=4;" vertex="1" parent="CmUgu9I3wbJfP3efiQkR-21">
          <mxGeometry width="180" height="30" as="geometry">
            <mxRectangle width="180" height="30" as="alternateBounds" />
          </mxGeometry>
        </mxCell>
      </root>
    </mxGraphModel>
  </diagram>
  <diagram id="MzyK1jZ0PgSWaddkWsds" name="Conceptual diagram">
    <mxGraphModel dx="1434" dy="738" grid="1" gridSize="10" guides="1" tooltips="1" connect="1" arrows="1" fold="1" page="1" pageScale="1" pageWidth="827" pageHeight="1169" math="0" shadow="0">
      <root>
        <mxCell id="0" />
        <mxCell id="1" parent="0" />
        <mxCell id="yqwuXTLjDyiq_05kDCI0-1" style="edgeStyle=orthogonalEdgeStyle;rounded=0;orthogonalLoop=1;jettySize=auto;html=1;startArrow=classic;startFill=1;" parent="1" source="yqwuXTLjDyiq_05kDCI0-2" target="yqwuXTLjDyiq_05kDCI0-25" edge="1">
          <mxGeometry relative="1" as="geometry">
            <mxPoint x="850" y="310" as="targetPoint" />
          </mxGeometry>
        </mxCell>
        <object placeholders="1" c4Name="Student" c4Type="Person" c4Description="Person who want to learn the language" label="&lt;font style=&quot;font-size: 16px&quot;&gt;&lt;b&gt;%c4Name%&lt;/b&gt;&lt;/font&gt;&lt;div&gt;[%c4Type%]&lt;/div&gt;&lt;br&gt;&lt;div&gt;&lt;font style=&quot;font-size: 11px&quot;&gt;&lt;font color=&quot;#cccccc&quot;&gt;%c4Description%&lt;/font&gt;&lt;/div&gt;" id="yqwuXTLjDyiq_05kDCI0-2">
          <mxCell style="html=1;fontSize=11;dashed=0;whiteSpace=wrap;fillColor=#083F75;strokeColor=#06315C;fontColor=#ffffff;shape=mxgraph.c4.person2;align=center;metaEdit=1;points=[[0.5,0,0],[1,0.5,0],[1,0.75,0],[0.75,1,0],[0.5,1,0],[0.25,1,0],[0,0.75,0],[0,0.5,0]];resizable=0;" parent="1" vertex="1">
            <mxGeometry x="340" y="90" width="200" height="180" as="geometry" />
          </mxCell>
        </object>
        <object placeholders="1" c4Name="LLM system" c4Type="Software System" c4Description="System to help students with their lessons" label="&lt;font style=&quot;font-size: 16px&quot;&gt;&lt;b&gt;%c4Name%&lt;/b&gt;&lt;/font&gt;&lt;div&gt;[%c4Type%]&lt;/div&gt;&lt;br&gt;&lt;div&gt;&lt;font style=&quot;font-size: 11px&quot;&gt;&lt;font color=&quot;#cccccc&quot;&gt;%c4Description%&lt;/font&gt;&lt;/div&gt;" id="yqwuXTLjDyiq_05kDCI0-9">
          <mxCell style="rounded=1;whiteSpace=wrap;html=1;labelBackgroundColor=none;fillColor=#8C8496;fontColor=#ffffff;align=center;arcSize=10;strokeColor=#736782;metaEdit=1;resizable=0;points=[[0.25,0,0],[0.5,0,0],[0.75,0,0],[1,0.25,0],[1,0.5,0],[1,0.75,0],[0.75,1,0],[0.5,1,0],[0.25,1,0],[0,0.75,0],[0,0.5,0],[0,0.25,0]];" parent="1" vertex="1">
            <mxGeometry x="1670" y="390" width="240" height="120" as="geometry" />
          </mxCell>
        </object>
        <mxCell id="yqwuXTLjDyiq_05kDCI0-10" value="Legend" style="shape=table;startSize=30;container=1;collapsible=0;childLayout=tableLayout;fontSize=16;align=left;verticalAlign=top;fillColor=none;strokeColor=none;fontColor=#4D4D4D;fontStyle=1;spacingLeft=6;spacing=0;resizable=0;" parent="1" vertex="1">
          <mxGeometry x="350" y="320" width="180" height="210" as="geometry" />
        </mxCell>
        <mxCell id="yqwuXTLjDyiq_05kDCI0-11" value="" style="shape=tableRow;horizontal=0;startSize=0;swimlaneHead=0;swimlaneBody=0;strokeColor=inherit;top=0;left=0;bottom=0;right=0;collapsible=0;dropTarget=0;fillColor=none;points=[[0,0.5],[1,0.5]];portConstraint=eastwest;fontSize=12;" parent="yqwuXTLjDyiq_05kDCI0-10" vertex="1">
          <mxGeometry y="30" width="180" height="30" as="geometry" />
        </mxCell>
        <mxCell id="yqwuXTLjDyiq_05kDCI0-12" value="Person" style="shape=partialRectangle;html=1;whiteSpace=wrap;connectable=0;strokeColor=inherit;overflow=hidden;fillColor=#1E4074;top=0;left=0;bottom=0;right=0;pointerEvents=1;fontSize=12;align=left;fontColor=#FFFFFF;gradientColor=none;spacingLeft=10;spacingRight=4;" parent="yqwuXTLjDyiq_05kDCI0-11" vertex="1">
          <mxGeometry width="180" height="30" as="geometry">
            <mxRectangle width="180" height="30" as="alternateBounds" />
          </mxGeometry>
        </mxCell>
        <mxCell id="yqwuXTLjDyiq_05kDCI0-13" value="" style="shape=tableRow;horizontal=0;startSize=0;swimlaneHead=0;swimlaneBody=0;strokeColor=inherit;top=0;left=0;bottom=0;right=0;collapsible=0;dropTarget=0;fillColor=none;points=[[0,0.5],[1,0.5]];portConstraint=eastwest;fontSize=12;" parent="yqwuXTLjDyiq_05kDCI0-10" vertex="1">
          <mxGeometry y="60" width="180" height="30" as="geometry" />
        </mxCell>
        <mxCell id="yqwuXTLjDyiq_05kDCI0-14" value="Software System" style="shape=partialRectangle;html=1;whiteSpace=wrap;connectable=0;strokeColor=inherit;overflow=hidden;fillColor=#3162AF;top=0;left=0;bottom=0;right=0;pointerEvents=1;fontSize=12;align=left;fontColor=#FFFFFF;gradientColor=none;spacingLeft=10;spacingRight=4;" parent="yqwuXTLjDyiq_05kDCI0-13" vertex="1">
          <mxGeometry width="180" height="30" as="geometry">
            <mxRectangle width="180" height="30" as="alternateBounds" />
          </mxGeometry>
        </mxCell>
        <mxCell id="yqwuXTLjDyiq_05kDCI0-15" value="" style="shape=tableRow;horizontal=0;startSize=0;swimlaneHead=0;swimlaneBody=0;strokeColor=inherit;top=0;left=0;bottom=0;right=0;collapsible=0;dropTarget=0;fillColor=none;points=[[0,0.5],[1,0.5]];portConstraint=eastwest;fontSize=12;" parent="yqwuXTLjDyiq_05kDCI0-10" vertex="1">
          <mxGeometry y="90" width="180" height="30" as="geometry" />
        </mxCell>
        <mxCell id="yqwuXTLjDyiq_05kDCI0-16" value="Container" style="shape=partialRectangle;html=1;whiteSpace=wrap;connectable=0;strokeColor=inherit;overflow=hidden;fillColor=#52a2d8;top=0;left=0;bottom=0;right=0;pointerEvents=1;fontSize=12;align=left;fontColor=#FFFFFF;gradientColor=none;spacingLeft=10;spacingRight=4;" parent="yqwuXTLjDyiq_05kDCI0-15" vertex="1">
          <mxGeometry width="180" height="30" as="geometry">
            <mxRectangle width="180" height="30" as="alternateBounds" />
          </mxGeometry>
        </mxCell>
        <mxCell id="yqwuXTLjDyiq_05kDCI0-17" value="" style="shape=tableRow;horizontal=0;startSize=0;swimlaneHead=0;swimlaneBody=0;strokeColor=inherit;top=0;left=0;bottom=0;right=0;collapsible=0;dropTarget=0;fillColor=none;points=[[0,0.5],[1,0.5]];portConstraint=eastwest;fontSize=12;" parent="yqwuXTLjDyiq_05kDCI0-10" vertex="1">
          <mxGeometry y="120" width="180" height="30" as="geometry" />
        </mxCell>
        <mxCell id="yqwuXTLjDyiq_05kDCI0-18" value="Component" style="shape=partialRectangle;html=1;whiteSpace=wrap;connectable=0;strokeColor=inherit;overflow=hidden;fillColor=#7dbef2;top=0;left=0;bottom=0;right=0;pointerEvents=1;fontSize=12;align=left;fontColor=#FFFFFF;gradientColor=none;spacingLeft=10;spacingRight=4;" parent="yqwuXTLjDyiq_05kDCI0-17" vertex="1">
          <mxGeometry width="180" height="30" as="geometry">
            <mxRectangle width="180" height="30" as="alternateBounds" />
          </mxGeometry>
        </mxCell>
        <mxCell id="yqwuXTLjDyiq_05kDCI0-19" value="" style="shape=tableRow;horizontal=0;startSize=0;swimlaneHead=0;swimlaneBody=0;strokeColor=inherit;top=0;left=0;bottom=0;right=0;collapsible=0;dropTarget=0;fillColor=none;points=[[0,0.5],[1,0.5]];portConstraint=eastwest;fontSize=12;" parent="yqwuXTLjDyiq_05kDCI0-10" vertex="1">
          <mxGeometry y="150" width="180" height="30" as="geometry" />
        </mxCell>
        <mxCell id="yqwuXTLjDyiq_05kDCI0-20" value="External Person" style="shape=partialRectangle;html=1;whiteSpace=wrap;connectable=0;strokeColor=inherit;overflow=hidden;fillColor=#6b6477;top=0;left=0;bottom=0;right=0;pointerEvents=1;fontSize=12;align=left;fontColor=#FFFFFF;gradientColor=none;spacingLeft=10;spacingRight=4;" parent="yqwuXTLjDyiq_05kDCI0-19" vertex="1">
          <mxGeometry width="180" height="30" as="geometry">
            <mxRectangle width="180" height="30" as="alternateBounds" />
          </mxGeometry>
        </mxCell>
        <mxCell id="yqwuXTLjDyiq_05kDCI0-21" value="" style="shape=tableRow;horizontal=0;startSize=0;swimlaneHead=0;swimlaneBody=0;strokeColor=inherit;top=0;left=0;bottom=0;right=0;collapsible=0;dropTarget=0;fillColor=none;points=[[0,0.5],[1,0.5]];portConstraint=eastwest;fontSize=12;" parent="yqwuXTLjDyiq_05kDCI0-10" vertex="1">
          <mxGeometry y="180" width="180" height="30" as="geometry" />
        </mxCell>
        <mxCell id="yqwuXTLjDyiq_05kDCI0-22" value="External Software System" style="shape=partialRectangle;html=1;whiteSpace=wrap;connectable=0;strokeColor=inherit;overflow=hidden;fillColor=#8b8496;top=0;left=0;bottom=0;right=0;pointerEvents=1;fontSize=12;align=left;fontColor=#FFFFFF;gradientColor=none;spacingLeft=10;spacingRight=4;" parent="yqwuXTLjDyiq_05kDCI0-21" vertex="1">
          <mxGeometry width="180" height="30" as="geometry">
            <mxRectangle width="180" height="30" as="alternateBounds" />
          </mxGeometry>
        </mxCell>
        <object placeholders="1" c4Name="Teaching system" c4Type="SystemScopeBoundary" c4Application="Software System" label="&lt;font style=&quot;font-size: 16px&quot;&gt;&lt;b&gt;&lt;div style=&quot;text-align: left&quot;&gt;%c4Name%&lt;/div&gt;&lt;/b&gt;&lt;/font&gt;&lt;div style=&quot;text-align: left&quot;&gt;[%c4Application%]&lt;/div&gt;" id="yqwuXTLjDyiq_05kDCI0-23">
          <mxCell style="rounded=1;fontSize=11;whiteSpace=wrap;html=1;dashed=1;arcSize=20;fillColor=none;strokeColor=#666666;fontColor=#333333;labelBackgroundColor=none;align=left;verticalAlign=bottom;labelBorderColor=none;spacingTop=0;spacing=10;dashPattern=8 4;metaEdit=1;rotatable=0;perimeter=rectanglePerimeter;noLabel=0;labelPadding=0;allowArrows=0;connectable=0;expand=0;recursiveResize=0;editable=1;pointerEvents=0;absoluteArcSize=1;points=[[0.25,0,0],[0.5,0,0],[0.75,0,0],[1,0.25,0],[1,0.5,0],[1,0.75,0],[0.75,1,0],[0.5,1,0],[0.25,1,0],[0,0.75,0],[0,0.5,0],[0,0.25,0]];" parent="1" vertex="1">
            <mxGeometry x="650" y="70" width="890" height="750" as="geometry" />
          </mxCell>
        </object>
        <mxCell id="II3BnbkmQX-80C8ToJDy-2" style="edgeStyle=orthogonalEdgeStyle;rounded=0;orthogonalLoop=1;jettySize=auto;html=1;startArrow=classic;startFill=1;" parent="1" source="yqwuXTLjDyiq_05kDCI0-24" target="yqwuXTLjDyiq_05kDCI0-26" edge="1">
          <mxGeometry relative="1" as="geometry" />
        </mxCell>
        <object placeholders="1" c4Name="Single page application" c4Type="Container" c4Technology="e.g. JavaScript, Angular etc." c4Description="Description of web browser container role/responsibility." label="&lt;font style=&quot;font-size: 16px&quot;&gt;&lt;b&gt;%c4Name%&lt;/b&gt;&lt;/font&gt;&lt;div&gt;[%c4Type%:&amp;nbsp;%c4Technology%]&lt;/div&gt;&lt;br&gt;&lt;div&gt;&lt;font style=&quot;font-size: 11px&quot;&gt;&lt;font color=&quot;#E6E6E6&quot;&gt;%c4Description%&lt;/font&gt;&lt;/div&gt;" id="yqwuXTLjDyiq_05kDCI0-24">
          <mxCell style="shape=mxgraph.c4.webBrowserContainer2;whiteSpace=wrap;html=1;boundedLbl=1;rounded=0;labelBackgroundColor=none;strokeColor=#118ACD;fillColor=#23A2D9;strokeColor=#118ACD;strokeColor2=#0E7DAD;fontSize=12;fontColor=#ffffff;align=center;metaEdit=1;points=[[0.5,0,0],[1,0.25,0],[1,0.5,0],[1,0.75,0],[0.5,1,0],[0,0.75,0],[0,0.5,0],[0,0.25,0]];resizable=0;" parent="1" vertex="1">
            <mxGeometry x="1120" y="100" width="240" height="160" as="geometry" />
          </mxCell>
        </object>
        <mxCell id="II3BnbkmQX-80C8ToJDy-1" style="edgeStyle=orthogonalEdgeStyle;rounded=0;orthogonalLoop=1;jettySize=auto;html=1;startArrow=classic;startFill=1;" parent="1" source="yqwuXTLjDyiq_05kDCI0-25" target="yqwuXTLjDyiq_05kDCI0-24" edge="1">
          <mxGeometry relative="1" as="geometry" />
        </mxCell>
        <object placeholders="1" c4Name="Web application" c4Type="Container" c4Technology="React" c4Description="Delivers the static pages and the internet teaching single page application" label="&lt;font style=&quot;font-size: 16px&quot;&gt;&lt;b&gt;%c4Name%&lt;/b&gt;&lt;/font&gt;&lt;div&gt;[%c4Type%: %c4Technology%]&lt;/div&gt;&lt;br&gt;&lt;div&gt;&lt;font style=&quot;font-size: 11px&quot;&gt;&lt;font color=&quot;#E6E6E6&quot;&gt;%c4Description%&lt;/font&gt;&lt;/div&gt;" id="yqwuXTLjDyiq_05kDCI0-25">
          <mxCell style="rounded=1;whiteSpace=wrap;html=1;fontSize=11;labelBackgroundColor=none;fillColor=#23A2D9;fontColor=#ffffff;align=center;arcSize=10;strokeColor=#0E7DAD;metaEdit=1;resizable=0;points=[[0.25,0,0],[0.5,0,0],[0.75,0,0],[1,0.25,0],[1,0.5,0],[1,0.75,0],[0.75,1,0],[0.5,1,0],[0.25,1,0],[0,0.75,0],[0,0.5,0],[0,0.25,0]];" parent="1" vertex="1">
            <mxGeometry x="750" y="120" width="240" height="120" as="geometry" />
          </mxCell>
        </object>
        <mxCell id="II3BnbkmQX-80C8ToJDy-3" style="edgeStyle=orthogonalEdgeStyle;rounded=0;orthogonalLoop=1;jettySize=auto;html=1;startArrow=classic;startFill=1;" parent="1" source="yqwuXTLjDyiq_05kDCI0-26" target="yqwuXTLjDyiq_05kDCI0-9" edge="1">
          <mxGeometry relative="1" as="geometry" />
        </mxCell>
        <mxCell id="pTzR2u-v7yI4xB5oMfek-2" style="edgeStyle=orthogonalEdgeStyle;rounded=0;orthogonalLoop=1;jettySize=auto;html=1;startArrow=classic;startFill=1;" parent="1" source="yqwuXTLjDyiq_05kDCI0-26" target="nAzOKeVRJL5CSSMwaylC-1" edge="1">
          <mxGeometry relative="1" as="geometry" />
        </mxCell>
        <object placeholders="1" c4Name="Api application" c4Type="Container" c4Technology="Python, Flask" c4Description="Provides the teaching functionalities via RestFull API" label="&lt;font style=&quot;font-size: 16px&quot;&gt;&lt;b&gt;%c4Name%&lt;/b&gt;&lt;/font&gt;&lt;div&gt;[%c4Type%: %c4Technology%]&lt;/div&gt;&lt;br&gt;&lt;div&gt;&lt;font style=&quot;font-size: 11px&quot;&gt;&lt;font color=&quot;#E6E6E6&quot;&gt;%c4Description%&lt;/font&gt;&lt;/div&gt;" id="yqwuXTLjDyiq_05kDCI0-26">
          <mxCell style="rounded=1;whiteSpace=wrap;html=1;fontSize=11;labelBackgroundColor=none;fillColor=#23A2D9;fontColor=#ffffff;align=center;arcSize=10;strokeColor=#0E7DAD;metaEdit=1;resizable=0;points=[[0.25,0,0],[0.5,0,0],[0.75,0,0],[1,0.25,0],[1,0.5,0],[1,0.75,0],[0.75,1,0],[0.5,1,0],[0.25,1,0],[0,0.75,0],[0,0.5,0],[0,0.25,0]];" parent="1" vertex="1">
            <mxGeometry x="1120" y="390" width="240" height="120" as="geometry" />
          </mxCell>
        </object>
        <object placeholders="1" c4Name="Teaching Database" c4Type="Container" c4Technology="SQLite3" c4Description="Store user information and teaching elements" label="&lt;font style=&quot;font-size: 16px&quot;&gt;&lt;b&gt;%c4Name%&lt;/b&gt;&lt;/font&gt;&lt;div&gt;[%c4Type%:&amp;nbsp;%c4Technology%]&lt;/div&gt;&lt;br&gt;&lt;div&gt;&lt;font style=&quot;font-size: 11px&quot;&gt;&lt;font color=&quot;#E6E6E6&quot;&gt;%c4Description%&lt;/font&gt;&lt;/div&gt;" id="nAzOKeVRJL5CSSMwaylC-1">
          <mxCell style="shape=cylinder3;size=15;whiteSpace=wrap;html=1;boundedLbl=1;rounded=0;labelBackgroundColor=none;fillColor=#23A2D9;fontSize=12;fontColor=#ffffff;align=center;strokeColor=#0E7DAD;metaEdit=1;points=[[0.5,0,0],[1,0.25,0],[1,0.5,0],[1,0.75,0],[0.5,1,0],[0,0.75,0],[0,0.5,0],[0,0.25,0]];resizable=0;" parent="1" vertex="1">
            <mxGeometry x="1120" y="660" width="240" height="120" as="geometry" />
          </mxCell>
        </object>
      </root>
    </mxGraphModel>
  </diagram>
  <diagram id="6ARZYM0lOGHH6YCxGidD" name="Logical diagram">
    <mxGraphModel dx="2607" dy="1342" grid="1" gridSize="10" guides="1" tooltips="1" connect="1" arrows="1" fold="1" page="1" pageScale="1" pageWidth="827" pageHeight="1169" math="0" shadow="0">
      <root>
        <mxCell id="0" />
        <mxCell id="1" parent="0" />
        <object placeholders="1" c4Name="LLM system" c4Type="Software System" c4Description="System to help students with their lessons" label="&lt;font style=&quot;font-size: 16px&quot;&gt;&lt;b&gt;%c4Name%&lt;/b&gt;&lt;/font&gt;&lt;div&gt;[%c4Type%]&lt;/div&gt;&lt;br&gt;&lt;div&gt;&lt;font style=&quot;font-size: 11px&quot;&gt;&lt;font color=&quot;#cccccc&quot;&gt;%c4Description%&lt;/font&gt;&lt;/div&gt;" id="WxLrK4Px1-FRtkLCUEh5-3">
          <mxCell style="rounded=1;whiteSpace=wrap;html=1;labelBackgroundColor=none;fillColor=#8C8496;fontColor=#ffffff;align=center;arcSize=10;strokeColor=#736782;metaEdit=1;resizable=0;points=[[0.25,0,0],[0.5,0,0],[0.75,0,0],[1,0.25,0],[1,0.5,0],[1,0.75,0],[0.75,1,0],[0.5,1,0],[0.25,1,0],[0,0.75,0],[0,0.5,0],[0,0.25,0]];" parent="1" vertex="1">
            <mxGeometry x="2850" y="571" width="240" height="120" as="geometry" />
          </mxCell>
        </object>
        <mxCell id="WxLrK4Px1-FRtkLCUEh5-4" value="Legend" style="shape=table;startSize=30;container=1;collapsible=0;childLayout=tableLayout;fontSize=16;align=left;verticalAlign=top;fillColor=none;strokeColor=none;fontColor=#4D4D4D;fontStyle=1;spacingLeft=6;spacing=0;resizable=0;" parent="1" vertex="1">
          <mxGeometry x="270" y="710" width="180" height="210" as="geometry" />
        </mxCell>
        <mxCell id="WxLrK4Px1-FRtkLCUEh5-5" value="" style="shape=tableRow;horizontal=0;startSize=0;swimlaneHead=0;swimlaneBody=0;strokeColor=inherit;top=0;left=0;bottom=0;right=0;collapsible=0;dropTarget=0;fillColor=none;points=[[0,0.5],[1,0.5]];portConstraint=eastwest;fontSize=12;" parent="WxLrK4Px1-FRtkLCUEh5-4" vertex="1">
          <mxGeometry y="30" width="180" height="30" as="geometry" />
        </mxCell>
        <mxCell id="WxLrK4Px1-FRtkLCUEh5-6" value="Person" style="shape=partialRectangle;html=1;whiteSpace=wrap;connectable=0;strokeColor=inherit;overflow=hidden;fillColor=#1E4074;top=0;left=0;bottom=0;right=0;pointerEvents=1;fontSize=12;align=left;fontColor=#FFFFFF;gradientColor=none;spacingLeft=10;spacingRight=4;" parent="WxLrK4Px1-FRtkLCUEh5-5" vertex="1">
          <mxGeometry width="180" height="30" as="geometry">
            <mxRectangle width="180" height="30" as="alternateBounds" />
          </mxGeometry>
        </mxCell>
        <mxCell id="WxLrK4Px1-FRtkLCUEh5-7" value="" style="shape=tableRow;horizontal=0;startSize=0;swimlaneHead=0;swimlaneBody=0;strokeColor=inherit;top=0;left=0;bottom=0;right=0;collapsible=0;dropTarget=0;fillColor=none;points=[[0,0.5],[1,0.5]];portConstraint=eastwest;fontSize=12;" parent="WxLrK4Px1-FRtkLCUEh5-4" vertex="1">
          <mxGeometry y="60" width="180" height="30" as="geometry" />
        </mxCell>
        <mxCell id="WxLrK4Px1-FRtkLCUEh5-8" value="Software System" style="shape=partialRectangle;html=1;whiteSpace=wrap;connectable=0;strokeColor=inherit;overflow=hidden;fillColor=#3162AF;top=0;left=0;bottom=0;right=0;pointerEvents=1;fontSize=12;align=left;fontColor=#FFFFFF;gradientColor=none;spacingLeft=10;spacingRight=4;" parent="WxLrK4Px1-FRtkLCUEh5-7" vertex="1">
          <mxGeometry width="180" height="30" as="geometry">
            <mxRectangle width="180" height="30" as="alternateBounds" />
          </mxGeometry>
        </mxCell>
        <mxCell id="WxLrK4Px1-FRtkLCUEh5-9" value="" style="shape=tableRow;horizontal=0;startSize=0;swimlaneHead=0;swimlaneBody=0;strokeColor=inherit;top=0;left=0;bottom=0;right=0;collapsible=0;dropTarget=0;fillColor=none;points=[[0,0.5],[1,0.5]];portConstraint=eastwest;fontSize=12;" parent="WxLrK4Px1-FRtkLCUEh5-4" vertex="1">
          <mxGeometry y="90" width="180" height="30" as="geometry" />
        </mxCell>
        <mxCell id="WxLrK4Px1-FRtkLCUEh5-10" value="Container" style="shape=partialRectangle;html=1;whiteSpace=wrap;connectable=0;strokeColor=inherit;overflow=hidden;fillColor=#52a2d8;top=0;left=0;bottom=0;right=0;pointerEvents=1;fontSize=12;align=left;fontColor=#FFFFFF;gradientColor=none;spacingLeft=10;spacingRight=4;" parent="WxLrK4Px1-FRtkLCUEh5-9" vertex="1">
          <mxGeometry width="180" height="30" as="geometry">
            <mxRectangle width="180" height="30" as="alternateBounds" />
          </mxGeometry>
        </mxCell>
        <mxCell id="WxLrK4Px1-FRtkLCUEh5-11" value="" style="shape=tableRow;horizontal=0;startSize=0;swimlaneHead=0;swimlaneBody=0;strokeColor=inherit;top=0;left=0;bottom=0;right=0;collapsible=0;dropTarget=0;fillColor=none;points=[[0,0.5],[1,0.5]];portConstraint=eastwest;fontSize=12;" parent="WxLrK4Px1-FRtkLCUEh5-4" vertex="1">
          <mxGeometry y="120" width="180" height="30" as="geometry" />
        </mxCell>
        <mxCell id="WxLrK4Px1-FRtkLCUEh5-12" value="Component" style="shape=partialRectangle;html=1;whiteSpace=wrap;connectable=0;strokeColor=inherit;overflow=hidden;fillColor=#7dbef2;top=0;left=0;bottom=0;right=0;pointerEvents=1;fontSize=12;align=left;fontColor=#FFFFFF;gradientColor=none;spacingLeft=10;spacingRight=4;" parent="WxLrK4Px1-FRtkLCUEh5-11" vertex="1">
          <mxGeometry width="180" height="30" as="geometry">
            <mxRectangle width="180" height="30" as="alternateBounds" />
          </mxGeometry>
        </mxCell>
        <mxCell id="WxLrK4Px1-FRtkLCUEh5-13" value="" style="shape=tableRow;horizontal=0;startSize=0;swimlaneHead=0;swimlaneBody=0;strokeColor=inherit;top=0;left=0;bottom=0;right=0;collapsible=0;dropTarget=0;fillColor=none;points=[[0,0.5],[1,0.5]];portConstraint=eastwest;fontSize=12;" parent="WxLrK4Px1-FRtkLCUEh5-4" vertex="1">
          <mxGeometry y="150" width="180" height="30" as="geometry" />
        </mxCell>
        <mxCell id="WxLrK4Px1-FRtkLCUEh5-14" value="External Person" style="shape=partialRectangle;html=1;whiteSpace=wrap;connectable=0;strokeColor=inherit;overflow=hidden;fillColor=#6b6477;top=0;left=0;bottom=0;right=0;pointerEvents=1;fontSize=12;align=left;fontColor=#FFFFFF;gradientColor=none;spacingLeft=10;spacingRight=4;" parent="WxLrK4Px1-FRtkLCUEh5-13" vertex="1">
          <mxGeometry width="180" height="30" as="geometry">
            <mxRectangle width="180" height="30" as="alternateBounds" />
          </mxGeometry>
        </mxCell>
        <mxCell id="WxLrK4Px1-FRtkLCUEh5-15" value="" style="shape=tableRow;horizontal=0;startSize=0;swimlaneHead=0;swimlaneBody=0;strokeColor=inherit;top=0;left=0;bottom=0;right=0;collapsible=0;dropTarget=0;fillColor=none;points=[[0,0.5],[1,0.5]];portConstraint=eastwest;fontSize=12;" parent="WxLrK4Px1-FRtkLCUEh5-4" vertex="1">
          <mxGeometry y="180" width="180" height="30" as="geometry" />
        </mxCell>
        <mxCell id="WxLrK4Px1-FRtkLCUEh5-16" value="External Software System" style="shape=partialRectangle;html=1;whiteSpace=wrap;connectable=0;strokeColor=inherit;overflow=hidden;fillColor=#8b8496;top=0;left=0;bottom=0;right=0;pointerEvents=1;fontSize=12;align=left;fontColor=#FFFFFF;gradientColor=none;spacingLeft=10;spacingRight=4;" parent="WxLrK4Px1-FRtkLCUEh5-15" vertex="1">
          <mxGeometry width="180" height="30" as="geometry">
            <mxRectangle width="180" height="30" as="alternateBounds" />
          </mxGeometry>
        </mxCell>
        <mxCell id="WxLrK4Px1-FRtkLCUEh5-28" style="edgeStyle=orthogonalEdgeStyle;rounded=0;orthogonalLoop=1;jettySize=auto;html=1;" parent="1" source="WxLrK4Px1-FRtkLCUEh5-19" target="WxLrK4Px1-FRtkLCUEh5-27" edge="1">
          <mxGeometry relative="1" as="geometry" />
        </mxCell>
        <object placeholders="1" c4Name="Single page application" c4Type="Container" c4Technology="e.g. JavaScript, Angular etc." c4Description="Description of web browser container role/responsibility." label="&lt;font style=&quot;font-size: 16px&quot;&gt;&lt;b&gt;%c4Name%&lt;/b&gt;&lt;/font&gt;&lt;div&gt;[%c4Type%:&amp;nbsp;%c4Technology%]&lt;/div&gt;&lt;br&gt;&lt;div&gt;&lt;font style=&quot;font-size: 11px&quot;&gt;&lt;font color=&quot;#E6E6E6&quot;&gt;%c4Description%&lt;/font&gt;&lt;/div&gt;" id="WxLrK4Px1-FRtkLCUEh5-19">
          <mxCell style="shape=mxgraph.c4.webBrowserContainer2;whiteSpace=wrap;html=1;boundedLbl=1;rounded=0;labelBackgroundColor=none;strokeColor=#118ACD;fillColor=#23A2D9;strokeColor=#118ACD;strokeColor2=#0E7DAD;fontSize=12;fontColor=#ffffff;align=center;metaEdit=1;points=[[0.5,0,0],[1,0.25,0],[1,0.5,0],[1,0.75,0],[0.5,1,0],[0,0.75,0],[0,0.5,0],[0,0.25,0]];resizable=0;" parent="1" vertex="1">
            <mxGeometry x="270" y="390" width="240" height="160" as="geometry" />
          </mxCell>
        </object>
        <object placeholders="1" c4Name="Teaching Database" c4Type="Container" c4Technology="SQLite3" c4Description="Store user information and teaching elements" label="&lt;font style=&quot;font-size: 16px&quot;&gt;&lt;b&gt;%c4Name%&lt;/b&gt;&lt;/font&gt;&lt;div&gt;[%c4Type%:&amp;nbsp;%c4Technology%]&lt;/div&gt;&lt;br&gt;&lt;div&gt;&lt;font style=&quot;font-size: 11px&quot;&gt;&lt;font color=&quot;#E6E6E6&quot;&gt;%c4Description%&lt;/font&gt;&lt;/div&gt;" id="WxLrK4Px1-FRtkLCUEh5-25">
          <mxCell style="shape=cylinder3;size=15;whiteSpace=wrap;html=1;boundedLbl=1;rounded=0;labelBackgroundColor=none;fillColor=#23A2D9;fontSize=12;fontColor=#ffffff;align=center;strokeColor=#0E7DAD;metaEdit=1;points=[[0.5,0,0],[1,0.25,0],[1,0.5,0],[1,0.75,0],[0.5,1,0],[0,0.75,0],[0,0.5,0],[0,0.25,0]];resizable=0;" parent="1" vertex="1">
            <mxGeometry x="1790" y="1111" width="240" height="120" as="geometry" />
          </mxCell>
        </object>
        <object placeholders="1" c4Name="API application" c4Type="ContainerScopeBoundary" c4Application="Container" label="&lt;font style=&quot;font-size: 16px&quot;&gt;&lt;b&gt;&lt;div style=&quot;text-align: left&quot;&gt;%c4Name%&lt;/div&gt;&lt;/b&gt;&lt;/font&gt;&lt;div style=&quot;text-align: left&quot;&gt;[%c4Application%]&lt;/div&gt;" id="WxLrK4Px1-FRtkLCUEh5-26">
          <mxCell style="rounded=1;fontSize=11;whiteSpace=wrap;html=1;dashed=1;arcSize=20;fillColor=none;strokeColor=#666666;fontColor=#333333;labelBackgroundColor=none;align=left;verticalAlign=bottom;labelBorderColor=none;spacingTop=0;spacing=10;dashPattern=8 4;metaEdit=1;rotatable=0;perimeter=rectanglePerimeter;noLabel=0;labelPadding=0;allowArrows=0;connectable=0;expand=0;recursiveResize=0;editable=1;pointerEvents=0;absoluteArcSize=1;points=[[0.25,0,0],[0.5,0,0],[0.75,0,0],[1,0.25,0],[1,0.5,0],[1,0.75,0],[0.75,1,0],[0.5,1,0],[0.25,1,0],[0,0.75,0],[0,0.5,0],[0,0.25,0]];" parent="1" vertex="1">
            <mxGeometry x="740" y="330" width="2050" height="700" as="geometry" />
          </mxCell>
        </object>
        <mxCell id="n32_zZOZb8lNKAeGoTAY-11" style="edgeStyle=orthogonalEdgeStyle;rounded=0;orthogonalLoop=1;jettySize=auto;html=1;" parent="1" source="WxLrK4Px1-FRtkLCUEh5-27" target="n32_zZOZb8lNKAeGoTAY-12" edge="1">
          <mxGeometry relative="1" as="geometry">
            <mxPoint x="1450" y="470" as="targetPoint" />
          </mxGeometry>
        </mxCell>
        <object placeholders="1" c4Name="Sentence contstructor controller" c4Type="Controller component" c4Technology="Python" c4Description="Description of component role/responsibility." label="&lt;font style=&quot;font-size: 16px&quot;&gt;&lt;b&gt;%c4Name%&lt;/b&gt;&lt;/font&gt;&lt;div&gt;[%c4Type%: %c4Technology%]&lt;/div&gt;&lt;br&gt;&lt;div&gt;&lt;font style=&quot;font-size: 11px&quot;&gt;%c4Description%&lt;/font&gt;&lt;/div&gt;" id="WxLrK4Px1-FRtkLCUEh5-27">
          <mxCell style="rounded=1;whiteSpace=wrap;html=1;labelBackgroundColor=none;fillColor=#63BEF2;fontColor=#ffffff;align=center;arcSize=6;strokeColor=#2086C9;metaEdit=1;resizable=0;points=[[0.25,0,0],[0.5,0,0],[0.75,0,0],[1,0.25,0],[1,0.5,0],[1,0.75,0],[0.75,1,0],[0.5,1,0],[0.25,1,0],[0,0.75,0],[0,0.5,0],[0,0.25,0]];" parent="1" vertex="1">
            <mxGeometry x="760" y="410" width="240" height="120" as="geometry" />
          </mxCell>
        </object>
        <mxCell id="n32_zZOZb8lNKAeGoTAY-6" style="edgeStyle=orthogonalEdgeStyle;rounded=0;orthogonalLoop=1;jettySize=auto;html=1;" parent="1" source="n32_zZOZb8lNKAeGoTAY-1" target="n32_zZOZb8lNKAeGoTAY-5" edge="1">
          <mxGeometry relative="1" as="geometry" />
        </mxCell>
        <mxCell id="n32_zZOZb8lNKAeGoTAY-16" style="edgeStyle=orthogonalEdgeStyle;rounded=0;orthogonalLoop=1;jettySize=auto;html=1;" parent="1" source="n32_zZOZb8lNKAeGoTAY-1" target="n32_zZOZb8lNKAeGoTAY-2" edge="1">
          <mxGeometry relative="1" as="geometry" />
        </mxCell>
        <object placeholders="1" c4Name="Save student sentence " c4Type="use case component" c4Technology="Python" c4Description="Save english sentences provides by student to avoid same sentence in a short interval" label="&lt;font style=&quot;font-size: 16px&quot;&gt;&lt;b&gt;%c4Name%&lt;/b&gt;&lt;/font&gt;&lt;div&gt;[%c4Type%: %c4Technology%]&lt;/div&gt;&lt;br&gt;&lt;div&gt;&lt;font style=&quot;font-size: 11px&quot;&gt;%c4Description%&lt;/font&gt;&lt;/div&gt;" id="n32_zZOZb8lNKAeGoTAY-1">
          <mxCell style="rounded=1;whiteSpace=wrap;html=1;labelBackgroundColor=none;fillColor=#63BEF2;fontColor=#ffffff;align=center;arcSize=6;strokeColor=#2086C9;metaEdit=1;resizable=0;points=[[0.25,0,0],[0.5,0,0],[0.75,0,0],[1,0.25,0],[1,0.5,0],[1,0.75,0],[0.75,1,0],[0.5,1,0],[0.25,1,0],[0,0.75,0],[0,0.5,0],[0,0.25,0]];" parent="1" vertex="1">
            <mxGeometry x="1330" y="570" width="240" height="120" as="geometry" />
          </mxCell>
        </object>
        <mxCell id="n32_zZOZb8lNKAeGoTAY-3" style="edgeStyle=orthogonalEdgeStyle;rounded=0;orthogonalLoop=1;jettySize=auto;html=1;" parent="1" source="n32_zZOZb8lNKAeGoTAY-2" target="WxLrK4Px1-FRtkLCUEh5-19" edge="1">
          <mxGeometry relative="1" as="geometry" />
        </mxCell>
        <object placeholders="1" c4Name="Sentence contstructor presenter" c4Type="Presenter component" c4Technology="Python" c4Description="Description of component role/responsibility." label="&lt;font style=&quot;font-size: 16px&quot;&gt;&lt;b&gt;%c4Name%&lt;/b&gt;&lt;/font&gt;&lt;div&gt;[%c4Type%: %c4Technology%]&lt;/div&gt;&lt;br&gt;&lt;div&gt;&lt;font style=&quot;font-size: 11px&quot;&gt;%c4Description%&lt;/font&gt;&lt;/div&gt;" id="n32_zZOZb8lNKAeGoTAY-2">
          <mxCell style="rounded=1;whiteSpace=wrap;html=1;labelBackgroundColor=none;fillColor=#63BEF2;fontColor=#ffffff;align=center;arcSize=6;strokeColor=#2086C9;metaEdit=1;resizable=0;points=[[0.25,0,0],[0.5,0,0],[0.75,0,0],[1,0.25,0],[1,0.5,0],[1,0.75,0],[0.75,1,0],[0.5,1,0],[0.25,1,0],[0,0.75,0],[0,0.5,0],[0,0.25,0]];" parent="1" vertex="1">
            <mxGeometry x="760" y="570" width="240" height="120" as="geometry" />
          </mxCell>
        </object>
        <object placeholders="1" c4Name="Sentence constructor use case" c4Type="ContainerScopeBoundary" c4Application="Use case component" label="&lt;font style=&quot;font-size: 16px&quot;&gt;&lt;b&gt;&lt;div style=&quot;text-align: left&quot;&gt;%c4Name%&lt;/div&gt;&lt;/b&gt;&lt;/font&gt;&lt;div style=&quot;text-align: left&quot;&gt;[%c4Application%]&lt;/div&gt;" id="n32_zZOZb8lNKAeGoTAY-4">
          <mxCell style="rounded=1;fontSize=11;whiteSpace=wrap;html=1;dashed=1;arcSize=20;fillColor=none;strokeColor=#666666;fontColor=#333333;labelBackgroundColor=none;align=left;verticalAlign=bottom;labelBorderColor=none;spacingTop=0;spacing=10;dashPattern=8 4;metaEdit=1;rotatable=0;perimeter=rectanglePerimeter;noLabel=0;labelPadding=0;allowArrows=0;connectable=0;expand=0;recursiveResize=0;editable=1;pointerEvents=0;absoluteArcSize=1;points=[[0.25,0,0],[0.5,0,0],[0.75,0,0],[1,0.25,0],[1,0.5,0],[1,0.75,0],[0.75,1,0],[0.5,1,0],[0.25,1,0],[0,0.75,0],[0,0.5,0],[0,0.25,0]];" parent="1" vertex="1">
            <mxGeometry x="1080" y="390" width="580" height="370" as="geometry" />
          </mxCell>
        </object>
        <mxCell id="n32_zZOZb8lNKAeGoTAY-9" style="edgeStyle=orthogonalEdgeStyle;rounded=0;orthogonalLoop=1;jettySize=auto;html=1;exitX=1;exitY=0.75;exitDx=0;exitDy=0;exitPerimeter=0;startArrow=classic;startFill=1;" parent="1" source="n32_zZOZb8lNKAeGoTAY-5" target="WxLrK4Px1-FRtkLCUEh5-25" edge="1">
          <mxGeometry relative="1" as="geometry">
            <Array as="points">
              <mxPoint x="1910" y="961" />
            </Array>
          </mxGeometry>
        </mxCell>
        <object placeholders="1" c4Name="Student sentence archiver" c4Type="Gateway component" c4Technology="Python" c4Description="Persist information in the desired database" label="&lt;font style=&quot;font-size: 16px&quot;&gt;&lt;b&gt;%c4Name%&lt;/b&gt;&lt;/font&gt;&lt;div&gt;[%c4Type%: %c4Technology%]&lt;/div&gt;&lt;br&gt;&lt;div&gt;&lt;font style=&quot;font-size: 11px&quot;&gt;%c4Description%&lt;/font&gt;&lt;/div&gt;" id="n32_zZOZb8lNKAeGoTAY-5">
          <mxCell style="rounded=1;whiteSpace=wrap;html=1;labelBackgroundColor=none;fillColor=#63BEF2;fontColor=#ffffff;align=center;arcSize=6;strokeColor=#2086C9;metaEdit=1;resizable=0;points=[[0.25,0,0],[0.5,0,0],[0.75,0,0],[1,0.25,0],[1,0.5,0],[1,0.75,0],[0.75,1,0],[0.5,1,0],[0.25,1,0],[0,0.75,0],[0,0.5,0],[0,0.25,0]];" parent="1" vertex="1">
            <mxGeometry x="1330" y="870" width="240" height="120" as="geometry" />
          </mxCell>
        </object>
        <mxCell id="n32_zZOZb8lNKAeGoTAY-15" style="edgeStyle=orthogonalEdgeStyle;rounded=0;orthogonalLoop=1;jettySize=auto;html=1;" parent="1" source="n32_zZOZb8lNKAeGoTAY-12" target="n32_zZOZb8lNKAeGoTAY-1" edge="1">
          <mxGeometry relative="1" as="geometry">
            <Array as="points">
              <mxPoint x="1440" y="591" />
            </Array>
          </mxGeometry>
        </mxCell>
        <object placeholders="1" c4Name="get advice" c4Type="use case component" c4Technology="Python" c4Description="Save english sentences provides by client" label="&lt;font style=&quot;font-size: 16px&quot;&gt;&lt;b&gt;%c4Name%&lt;/b&gt;&lt;/font&gt;&lt;div&gt;[%c4Type%: %c4Technology%]&lt;/div&gt;&lt;br&gt;&lt;div&gt;&lt;font style=&quot;font-size: 11px&quot;&gt;%c4Description%&lt;/font&gt;&lt;/div&gt;" id="n32_zZOZb8lNKAeGoTAY-12">
          <mxCell style="rounded=1;whiteSpace=wrap;html=1;labelBackgroundColor=none;fillColor=#63BEF2;fontColor=#ffffff;align=center;arcSize=6;strokeColor=#2086C9;metaEdit=1;resizable=0;points=[[0.25,0,0],[0.5,0,0],[0.75,0,0],[1,0.25,0],[1,0.5,0],[1,0.75,0],[0.75,1,0],[0.5,1,0],[0.25,1,0],[0,0.75,0],[0,0.5,0],[0,0.25,0]];" parent="1" vertex="1">
            <mxGeometry x="1320" y="411" width="240" height="120" as="geometry" />
          </mxCell>
        </object>
        <mxCell id="n32_zZOZb8lNKAeGoTAY-29" style="edgeStyle=orthogonalEdgeStyle;rounded=0;orthogonalLoop=1;jettySize=auto;html=1;entryX=1;entryY=0.5;entryDx=0;entryDy=0;entryPerimeter=0;startArrow=classic;startFill=1;" parent="1" source="n32_zZOZb8lNKAeGoTAY-13" target="n32_zZOZb8lNKAeGoTAY-12" edge="1">
          <mxGeometry relative="1" as="geometry" />
        </mxCell>
        <mxCell id="n32_zZOZb8lNKAeGoTAY-32" style="edgeStyle=orthogonalEdgeStyle;rounded=0;orthogonalLoop=1;jettySize=auto;html=1;" parent="1" source="n32_zZOZb8lNKAeGoTAY-13" target="n32_zZOZb8lNKAeGoTAY-24" edge="1">
          <mxGeometry relative="1" as="geometry" />
        </mxCell>
        <object placeholders="1" c4Name="Advise cacher" c4Type="Gateway sub component" c4Technology="Python" c4Description="Cache advise to avoid too much LLM call" label="&lt;font style=&quot;font-size: 16px&quot;&gt;&lt;b&gt;%c4Name%&lt;/b&gt;&lt;/font&gt;&lt;div&gt;[%c4Type%: %c4Technology%]&lt;/div&gt;&lt;br&gt;&lt;div&gt;&lt;font style=&quot;font-size: 11px&quot;&gt;%c4Description%&lt;/font&gt;&lt;/div&gt;" id="n32_zZOZb8lNKAeGoTAY-13">
          <mxCell style="rounded=1;whiteSpace=wrap;html=1;labelBackgroundColor=none;fillColor=#63BEF2;fontColor=#ffffff;align=center;arcSize=6;strokeColor=#2086C9;metaEdit=1;resizable=0;points=[[0.25,0,0],[0.5,0,0],[0.75,0,0],[1,0.25,0],[1,0.5,0],[1,0.75,0],[0.75,1,0],[0.5,1,0],[0.25,1,0],[0,0.75,0],[0,0.5,0],[0,0.25,0]];" parent="1" vertex="1">
            <mxGeometry x="1840" y="411" width="240" height="120" as="geometry" />
          </mxCell>
        </object>
        <object placeholders="1" c4Name="Sentence advisor" c4Type="ContainerScopeBoundary" c4Application="Gateway component" label="&lt;font style=&quot;font-size: 16px&quot;&gt;&lt;b&gt;&lt;div style=&quot;text-align: left&quot;&gt;%c4Name%&lt;/div&gt;&lt;/b&gt;&lt;/font&gt;&lt;div style=&quot;text-align: left&quot;&gt;[%c4Application%]&lt;/div&gt;" id="n32_zZOZb8lNKAeGoTAY-21">
          <mxCell style="rounded=1;fontSize=11;whiteSpace=wrap;html=1;dashed=1;arcSize=20;fillColor=none;strokeColor=#666666;fontColor=#333333;labelBackgroundColor=none;align=left;verticalAlign=bottom;labelBorderColor=none;spacingTop=0;spacing=10;dashPattern=8 4;metaEdit=1;rotatable=0;perimeter=rectanglePerimeter;noLabel=0;labelPadding=0;allowArrows=0;connectable=0;expand=0;recursiveResize=0;editable=1;pointerEvents=0;absoluteArcSize=1;points=[[0.25,0,0],[0.5,0,0],[0.75,0,0],[1,0.25,0],[1,0.5,0],[1,0.75,0],[0.75,1,0],[0.5,1,0],[0.25,1,0],[0,0.75,0],[0,0.5,0],[0,0.25,0]];" parent="1" vertex="1">
            <mxGeometry x="1790" y="381" width="950" height="480" as="geometry" />
          </mxCell>
        </object>
        <mxCell id="n32_zZOZb8lNKAeGoTAY-34" style="edgeStyle=orthogonalEdgeStyle;rounded=0;orthogonalLoop=1;jettySize=auto;html=1;" parent="1" source="n32_zZOZb8lNKAeGoTAY-23" target="n32_zZOZb8lNKAeGoTAY-25" edge="1">
          <mxGeometry relative="1" as="geometry" />
        </mxCell>
        <object placeholders="1" c4Name="Advise Input guardrail" c4Type="Gateway sub component" c4Technology="Python" c4Description="Prevent personal student information to be give to the LLM" label="&lt;font style=&quot;font-size: 16px&quot;&gt;&lt;b&gt;%c4Name%&lt;/b&gt;&lt;/font&gt;&lt;div&gt;[%c4Type%: %c4Technology%]&lt;/div&gt;&lt;br&gt;&lt;div&gt;&lt;font style=&quot;font-size: 11px&quot;&gt;%c4Description%&lt;/font&gt;&lt;/div&gt;" id="n32_zZOZb8lNKAeGoTAY-23">
          <mxCell style="rounded=1;whiteSpace=wrap;html=1;labelBackgroundColor=none;fillColor=#63BEF2;fontColor=#ffffff;align=center;arcSize=6;strokeColor=#2086C9;metaEdit=1;resizable=0;points=[[0.25,0,0],[0.5,0,0],[0.75,0,0],[1,0.25,0],[1,0.5,0],[1,0.75,0],[0.75,1,0],[0.5,1,0],[0.25,1,0],[0,0.75,0],[0,0.5,0],[0,0.25,0]];" parent="1" vertex="1">
            <mxGeometry x="2470" y="411" width="240" height="120" as="geometry" />
          </mxCell>
        </object>
        <mxCell id="n32_zZOZb8lNKAeGoTAY-33" style="edgeStyle=orthogonalEdgeStyle;rounded=0;orthogonalLoop=1;jettySize=auto;html=1;" parent="1" source="n32_zZOZb8lNKAeGoTAY-24" target="n32_zZOZb8lNKAeGoTAY-23" edge="1">
          <mxGeometry relative="1" as="geometry" />
        </mxCell>
        <object placeholders="1" c4Name="RAG adviser" c4Type="Gateway component" c4Technology="Python" c4Description="Give more context to advise better " label="&lt;font style=&quot;font-size: 16px&quot;&gt;&lt;b&gt;%c4Name%&lt;/b&gt;&lt;/font&gt;&lt;div&gt;[%c4Type%: %c4Technology%]&lt;/div&gt;&lt;br&gt;&lt;div&gt;&lt;font style=&quot;font-size: 11px&quot;&gt;%c4Description%&lt;/font&gt;&lt;/div&gt;" id="n32_zZOZb8lNKAeGoTAY-24">
          <mxCell style="rounded=1;whiteSpace=wrap;html=1;labelBackgroundColor=none;fillColor=#63BEF2;fontColor=#ffffff;align=center;arcSize=6;strokeColor=#2086C9;metaEdit=1;resizable=0;points=[[0.25,0,0],[0.5,0,0],[0.75,0,0],[1,0.25,0],[1,0.5,0],[1,0.75,0],[0.75,1,0],[0.5,1,0],[0.25,1,0],[0,0.75,0],[0,0.5,0],[0,0.25,0]];" parent="1" vertex="1">
            <mxGeometry x="2170" y="411" width="240" height="120" as="geometry" />
          </mxCell>
        </object>
        <mxCell id="n32_zZOZb8lNKAeGoTAY-26" style="edgeStyle=orthogonalEdgeStyle;rounded=0;orthogonalLoop=1;jettySize=auto;html=1;" parent="1" source="n32_zZOZb8lNKAeGoTAY-25" target="WxLrK4Px1-FRtkLCUEh5-3" edge="1">
          <mxGeometry relative="1" as="geometry" />
        </mxCell>
        <mxCell id="n32_zZOZb8lNKAeGoTAY-35" style="edgeStyle=orthogonalEdgeStyle;rounded=0;orthogonalLoop=1;jettySize=auto;html=1;" parent="1" source="n32_zZOZb8lNKAeGoTAY-25" target="n32_zZOZb8lNKAeGoTAY-27" edge="1">
          <mxGeometry relative="1" as="geometry" />
        </mxCell>
        <object placeholders="1" c4Name="Advise model gateway" c4Type="Gateway component" c4Technology="Python" c4Description="Call the LLM to have the advise" label="&lt;font style=&quot;font-size: 16px&quot;&gt;&lt;b&gt;%c4Name%&lt;/b&gt;&lt;/font&gt;&lt;div&gt;[%c4Type%: %c4Technology%]&lt;/div&gt;&lt;br&gt;&lt;div&gt;&lt;font style=&quot;font-size: 11px&quot;&gt;%c4Description%&lt;/font&gt;&lt;/div&gt;" id="n32_zZOZb8lNKAeGoTAY-25">
          <mxCell style="rounded=1;whiteSpace=wrap;html=1;labelBackgroundColor=none;fillColor=#63BEF2;fontColor=#ffffff;align=center;arcSize=6;strokeColor=#2086C9;metaEdit=1;resizable=0;points=[[0.25,0,0],[0.5,0,0],[0.75,0,0],[1,0.25,0],[1,0.5,0],[1,0.75,0],[0.75,1,0],[0.5,1,0],[0.25,1,0],[0,0.75,0],[0,0.5,0],[0,0.25,0]];" parent="1" vertex="1">
            <mxGeometry x="2470" y="571" width="240" height="120" as="geometry" />
          </mxCell>
        </object>
        <mxCell id="n32_zZOZb8lNKAeGoTAY-28" style="edgeStyle=orthogonalEdgeStyle;rounded=0;orthogonalLoop=1;jettySize=auto;html=1;exitX=0;exitY=0.5;exitDx=0;exitDy=0;exitPerimeter=0;" parent="1" source="n32_zZOZb8lNKAeGoTAY-27" target="n32_zZOZb8lNKAeGoTAY-13" edge="1">
          <mxGeometry relative="1" as="geometry" />
        </mxCell>
        <object placeholders="1" c4Name="Advise Output guardrail" c4Type="Gateway sub component" c4Technology="Python" c4Description="Prevent sensitive data to be return to the student" label="&lt;font style=&quot;font-size: 16px&quot;&gt;&lt;b&gt;%c4Name%&lt;/b&gt;&lt;/font&gt;&lt;div&gt;[%c4Type%: %c4Technology%]&lt;/div&gt;&lt;br&gt;&lt;div&gt;&lt;font style=&quot;font-size: 11px&quot;&gt;%c4Description%&lt;/font&gt;&lt;/div&gt;" id="n32_zZOZb8lNKAeGoTAY-27">
          <mxCell style="rounded=1;whiteSpace=wrap;html=1;labelBackgroundColor=none;fillColor=#63BEF2;fontColor=#ffffff;align=center;arcSize=6;strokeColor=#2086C9;metaEdit=1;resizable=0;points=[[0.25,0,0],[0.5,0,0],[0.75,0,0],[1,0.25,0],[1,0.5,0],[1,0.75,0],[0.75,1,0],[0.5,1,0],[0.25,1,0],[0,0.75,0],[0,0.5,0],[0,0.25,0]];" parent="1" vertex="1">
            <mxGeometry x="2470" y="721" width="240" height="120" as="geometry" />
          </mxCell>
        </object>
        <mxCell id="n32_zZOZb8lNKAeGoTAY-30" style="edgeStyle=orthogonalEdgeStyle;rounded=0;orthogonalLoop=1;jettySize=auto;html=1;entryX=1;entryY=0.75;entryDx=0;entryDy=0;entryPerimeter=0;exitX=0;exitY=0.5;exitDx=0;exitDy=0;exitPerimeter=0;" parent="1" source="n32_zZOZb8lNKAeGoTAY-27" target="n32_zZOZb8lNKAeGoTAY-12" edge="1">
          <mxGeometry relative="1" as="geometry">
            <Array as="points">
              <mxPoint x="1760" y="781" />
              <mxPoint x="1760" y="501" />
            </Array>
          </mxGeometry>
        </mxCell>
        <mxCell id="n32_zZOZb8lNKAeGoTAY-31" style="edgeStyle=orthogonalEdgeStyle;rounded=0;orthogonalLoop=1;jettySize=auto;html=1;jumpStyle=arc;startArrow=classic;startFill=1;entryX=0.767;entryY=0.027;entryDx=0;entryDy=0;entryPerimeter=0;" parent="1" source="n32_zZOZb8lNKAeGoTAY-24" target="WxLrK4Px1-FRtkLCUEh5-25" edge="1">
          <mxGeometry relative="1" as="geometry">
            <Array as="points">
              <mxPoint x="2290" y="961" />
              <mxPoint x="1974" y="961" />
            </Array>
          </mxGeometry>
        </mxCell>
      </root>
    </mxGraphModel>
  </diagram>
  <diagram id="9N8JsGKitWsluBdSh0z_" name="Sentence Constructor">
    <mxGraphModel dx="2261" dy="738" grid="1" gridSize="10" guides="1" tooltips="1" connect="1" arrows="1" fold="1" page="1" pageScale="1" pageWidth="827" pageHeight="1169" math="0" shadow="0">
      <root>
        <mxCell id="0" />
        <mxCell id="1" parent="0" />
        <mxCell id="4fA4bNYbJNO8NdR0cCv7-1" value="Vocabulary Table" style="html=1;overflow=block;blockSpacing=1;whiteSpace=wrap;fontSize=16.7;spacing=9;rounded=1;absoluteArcSize=1;arcSize=9;strokeWidth=NaN;lucidId=i6mGl-Nv1wdD;" vertex="1" parent="1">
          <mxGeometry x="231" y="211" width="314" height="52" as="geometry" />
        </mxCell>
        <mxCell id="4fA4bNYbJNO8NdR0cCv7-2" value="Sentence Structure" style="html=1;overflow=block;blockSpacing=1;whiteSpace=wrap;fontSize=16.7;spacing=9;rounded=1;absoluteArcSize=1;arcSize=9;strokeWidth=NaN;lucidId=q6mGIi-piEkY;" vertex="1" parent="1">
          <mxGeometry x="231" y="279" width="314" height="52" as="geometry" />
        </mxCell>
        <mxCell id="4fA4bNYbJNO8NdR0cCv7-3" value="Clues, Considerations, Next Steps" style="html=1;overflow=block;blockSpacing=1;whiteSpace=wrap;fontSize=16.7;spacing=9;rounded=1;absoluteArcSize=1;arcSize=9;strokeWidth=NaN;lucidId=x6mG9xt0YeUz;" vertex="1" parent="1">
          <mxGeometry x="231" y="347" width="314" height="52" as="geometry" />
        </mxCell>
        <mxCell id="4fA4bNYbJNO8NdR0cCv7-4" value="Assistant Output:" style="html=1;overflow=block;blockSpacing=1;whiteSpace=wrap;fontSize=16.7;align=left;spacing=0;verticalAlign=middle;rounded=1;absoluteArcSize=1;arcSize=9;strokeWidth=NaN;lucidId=Z6mGvqgDC.wt;" vertex="1" parent="1">
          <mxGeometry x="145" y="156" width="180" height="45" as="geometry" />
        </mxCell>
        <mxCell id="4fA4bNYbJNO8NdR0cCv7-5" value="Student Input" style="html=1;overflow=block;blockSpacing=1;whiteSpace=wrap;fontSize=16.7;align=left;spacing=0;verticalAlign=middle;rounded=1;absoluteArcSize=1;arcSize=9;strokeWidth=NaN;lucidId=e7mGZV0mo7_u;" vertex="1" parent="1">
          <mxGeometry x="145" y="48" width="180" height="45" as="geometry" />
        </mxCell>
        <mxCell id="4fA4bNYbJNO8NdR0cCv7-6" value="Target English Sentence" style="html=1;overflow=block;blockSpacing=1;whiteSpace=wrap;fontSize=16.7;spacing=9;rounded=1;absoluteArcSize=1;arcSize=9;strokeWidth=NaN;lucidId=q7mGAEIEwF0P;" vertex="1" parent="1">
          <mxGeometry x="230" y="93" width="314" height="52" as="geometry" />
        </mxCell>
        <mxCell id="4fA4bNYbJNO8NdR0cCv7-7" value="" style="whiteSpace=wrap;fontSize=16.7;spacing=3.8;rounded=1;absoluteArcSize=1;arcSize=9;strokeWidth=NaN;html=1;" vertex="1" parent="1">
          <mxGeometry x="66" y="48" width="60" height="363" as="geometry" />
        </mxCell>
        <mxCell id="4fA4bNYbJNO8NdR0cCv7-8" value="" style="shape=curlyBracket;rounded=1;whiteSpace=wrap;fontSize=16.7;spacing=3.8;strokeWidth=NaN;" vertex="1" parent="4fA4bNYbJNO8NdR0cCv7-7">
          <mxGeometry x="14.625" width="45.375" height="363" as="geometry" />
        </mxCell>
        <mxCell id="4fA4bNYbJNO8NdR0cCv7-9" value="Setup" style="whiteSpace=wrap;fontSize=16.7;spacing=3.8;rounded=1;absoluteArcSize=1;arcSize=9;strokeWidth=NaN;" vertex="1" parent="4fA4bNYbJNO8NdR0cCv7-7">
          <mxGeometry width="14.625" height="363" as="geometry" />
        </mxCell>
        <mxCell id="4fA4bNYbJNO8NdR0cCv7-10" value="Instructor Interperation" style="html=1;overflow=block;blockSpacing=1;whiteSpace=wrap;fontSize=16.7;spacing=9;rounded=1;absoluteArcSize=1;arcSize=9;strokeWidth=NaN;lucidId=97mG49bEf124;" vertex="1" parent="1">
          <mxGeometry x="231" y="625" width="314" height="52" as="geometry" />
        </mxCell>
        <mxCell id="4fA4bNYbJNO8NdR0cCv7-11" value="Clues, Considerations, Next Steps" style="html=1;overflow=block;blockSpacing=1;whiteSpace=wrap;fontSize=16.7;spacing=9;rounded=1;absoluteArcSize=1;arcSize=9;strokeWidth=NaN;lucidId=97mG6qQi8sJz;" vertex="1" parent="1">
          <mxGeometry x="231" y="693" width="314" height="52" as="geometry" />
        </mxCell>
        <mxCell id="4fA4bNYbJNO8NdR0cCv7-12" value="Assistant Output:" style="html=1;overflow=block;blockSpacing=1;whiteSpace=wrap;fontSize=16.7;align=left;spacing=0;verticalAlign=middle;rounded=1;absoluteArcSize=1;arcSize=9;strokeWidth=NaN;lucidId=97mG4oPIERKk;" vertex="1" parent="1">
          <mxGeometry x="145" y="566" width="180" height="45" as="geometry" />
        </mxCell>
        <mxCell id="4fA4bNYbJNO8NdR0cCv7-13" value="Student Input" style="html=1;overflow=block;blockSpacing=1;whiteSpace=wrap;fontSize=16.7;align=left;spacing=0;verticalAlign=middle;rounded=1;absoluteArcSize=1;arcSize=9;strokeWidth=NaN;lucidId=97mGKLjGzryf;" vertex="1" parent="1">
          <mxGeometry x="145" y="458" width="180" height="45" as="geometry" />
        </mxCell>
        <mxCell id="4fA4bNYbJNO8NdR0cCv7-14" value="Japanese Sentence Attempt" style="html=1;overflow=block;blockSpacing=1;whiteSpace=wrap;fontSize=16.7;spacing=9;rounded=1;absoluteArcSize=1;arcSize=9;strokeWidth=NaN;lucidId=97mGQm2pAF3j;" vertex="1" parent="1">
          <mxGeometry x="230" y="503" width="314" height="52" as="geometry" />
        </mxCell>
        <mxCell id="4fA4bNYbJNO8NdR0cCv7-15" value="" style="whiteSpace=wrap;fontSize=16.7;spacing=3.8;rounded=1;absoluteArcSize=1;arcSize=9;strokeWidth=NaN;html=1;" vertex="1" parent="1">
          <mxGeometry x="66" y="458" width="60" height="287" as="geometry" />
        </mxCell>
        <mxCell id="4fA4bNYbJNO8NdR0cCv7-16" value="" style="shape=curlyBracket;rounded=1;whiteSpace=wrap;fontSize=16.7;spacing=3.8;strokeWidth=NaN;" vertex="1" parent="4fA4bNYbJNO8NdR0cCv7-15">
          <mxGeometry x="24.125" width="35.875" height="287" as="geometry" />
        </mxCell>
        <mxCell id="4fA4bNYbJNO8NdR0cCv7-17" value="Attempt" style="whiteSpace=wrap;fontSize=16.7;spacing=3.8;rounded=1;absoluteArcSize=1;arcSize=9;strokeWidth=NaN;" vertex="1" parent="4fA4bNYbJNO8NdR0cCv7-15">
          <mxGeometry width="24.125" height="287" as="geometry" />
        </mxCell>
        <mxCell id="4fA4bNYbJNO8NdR0cCv7-18" value="Setup" style="html=1;overflow=block;blockSpacing=1;whiteSpace=wrap;fontSize=16.7;spacing=9;rounded=1;absoluteArcSize=1;arcSize=9;strokeWidth=NaN;lucidId=78mGv6tgdUqp;" vertex="1" parent="1">
          <mxGeometry x="-311" y="221" width="196" height="42" as="geometry" />
        </mxCell>
        <mxCell id="4fA4bNYbJNO8NdR0cCv7-19" value="Attempt" style="html=1;overflow=block;blockSpacing=1;whiteSpace=wrap;fontSize=16.7;spacing=9;rounded=1;absoluteArcSize=1;arcSize=9;strokeWidth=NaN;lucidId=.8mGZHAD9B35;" vertex="1" parent="1">
          <mxGeometry x="-416" y="305" width="196" height="42" as="geometry" />
        </mxCell>
        <mxCell id="4fA4bNYbJNO8NdR0cCv7-20" value="" style="html=1;jettySize=18;whiteSpace=wrap;fontSize=13;strokeOpacity=100;strokeWidth=0.8;rounded=1;arcSize=12;edgeStyle=orthogonalEdgeStyle;startArrow=none;endArrow=block;endFill=1;exitX=0.5;exitY=1.018;exitPerimeter=0;entryX=0.5;entryY=-0.018;entryPerimeter=0;lucidId=e9mGwkzDW.Fq;fontColor=default;" edge="1" parent="1" source="4fA4bNYbJNO8NdR0cCv7-18" target="4fA4bNYbJNO8NdR0cCv7-19">
          <mxGeometry width="100" height="100" relative="1" as="geometry">
            <Array as="points" />
          </mxGeometry>
        </mxCell>
        <mxCell id="4fA4bNYbJNO8NdR0cCv7-21" value="Clues" style="html=1;overflow=block;blockSpacing=1;whiteSpace=wrap;fontSize=16.7;spacing=9;rounded=1;absoluteArcSize=1;arcSize=9;strokeWidth=NaN;lucidId=j9mGBn~0GH5X;" vertex="1" parent="1">
          <mxGeometry x="-150" y="300" width="196" height="42" as="geometry" />
        </mxCell>
        <mxCell id="4fA4bNYbJNO8NdR0cCv7-22" value="" style="html=1;jettySize=18;whiteSpace=wrap;fontSize=13;strokeOpacity=100;strokeWidth=0.8;rounded=1;arcSize=12;edgeStyle=orthogonalEdgeStyle;startArrow=none;endArrow=block;endFill=1;exitX=0.5;exitY=1.018;exitPerimeter=0;entryX=0.5;entryY=-0.018;entryPerimeter=0;lucidId=p9mGJAcnlCbR;fontColor=default;" edge="1" parent="1" source="4fA4bNYbJNO8NdR0cCv7-18" target="4fA4bNYbJNO8NdR0cCv7-21">
          <mxGeometry width="100" height="100" relative="1" as="geometry">
            <Array as="points" />
          </mxGeometry>
        </mxCell>
        <mxCell id="4fA4bNYbJNO8NdR0cCv7-23" value="" style="html=1;jettySize=18;whiteSpace=wrap;fontSize=13;strokeOpacity=100;strokeWidth=0.8;rounded=1;arcSize=12;edgeStyle=orthogonalEdgeStyle;startArrow=none;endArrow=block;endFill=1;exitX=-0.004;exitY=0.5;exitPerimeter=0;entryX=1.004;entryY=0.5;entryPerimeter=0;lucidId=s9mGWl8zvJ8O;fontColor=default;" edge="1" parent="1" source="4fA4bNYbJNO8NdR0cCv7-21" target="4fA4bNYbJNO8NdR0cCv7-19">
          <mxGeometry width="100" height="100" relative="1" as="geometry">
            <Array as="points" />
          </mxGeometry>
        </mxCell>
        <mxCell id="4fA4bNYbJNO8NdR0cCv7-24" value="" style="html=1;jettySize=18;whiteSpace=wrap;fontSize=13;strokeOpacity=100;strokeWidth=0.8;rounded=1;arcSize=12;edgeStyle=orthogonalEdgeStyle;startArrow=none;endArrow=block;endFill=1;exitX=0.5;exitY=1.018;exitPerimeter=0;entryX=-0.004;entryY=0.5;entryPerimeter=0;lucidId=y9mG3IceF2DX;fontColor=default;" edge="1" parent="1" source="4fA4bNYbJNO8NdR0cCv7-19" target="4fA4bNYbJNO8NdR0cCv7-19">
          <mxGeometry width="100" height="100" relative="1" as="geometry">
            <Array as="points">
              <mxPoint x="-318" y="348" generated="1" />
              <mxPoint x="-417" y="326" generated="1" />
            </Array>
          </mxGeometry>
        </mxCell>
        <mxCell id="4fA4bNYbJNO8NdR0cCv7-25" value="Clues, Considerations, Next Steps" style="html=1;overflow=block;blockSpacing=1;whiteSpace=wrap;fontSize=16.7;spacing=9;rounded=1;absoluteArcSize=1;arcSize=9;strokeWidth=NaN;lucidId=L9mGHcVeouE-;" vertex="1" parent="1">
          <mxGeometry x="231" y="948" width="314" height="52" as="geometry" />
        </mxCell>
        <mxCell id="4fA4bNYbJNO8NdR0cCv7-26" value="Assistant Output:" style="html=1;overflow=block;blockSpacing=1;whiteSpace=wrap;fontSize=16.7;align=left;spacing=0;verticalAlign=middle;rounded=1;absoluteArcSize=1;arcSize=9;strokeWidth=NaN;lucidId=L9mGrwILJI7e;" vertex="1" parent="1">
          <mxGeometry x="145" y="893" width="180" height="45" as="geometry" />
        </mxCell>
        <mxCell id="4fA4bNYbJNO8NdR0cCv7-27" value="Student Input" style="html=1;overflow=block;blockSpacing=1;whiteSpace=wrap;fontSize=16.7;align=left;spacing=0;verticalAlign=middle;rounded=1;absoluteArcSize=1;arcSize=9;strokeWidth=NaN;lucidId=L9mGcfVdG0lw;" vertex="1" parent="1">
          <mxGeometry x="145" y="785" width="180" height="45" as="geometry" />
        </mxCell>
        <mxCell id="4fA4bNYbJNO8NdR0cCv7-28" value="Student Question" style="html=1;overflow=block;blockSpacing=1;whiteSpace=wrap;fontSize=16.7;spacing=9;rounded=1;absoluteArcSize=1;arcSize=9;strokeWidth=NaN;lucidId=L9mG7KKZEMym;" vertex="1" parent="1">
          <mxGeometry x="230" y="830" width="314" height="52" as="geometry" />
        </mxCell>
        <mxCell id="4fA4bNYbJNO8NdR0cCv7-29" value="" style="whiteSpace=wrap;fontSize=16.7;spacing=3.8;rounded=1;absoluteArcSize=1;arcSize=9;strokeWidth=NaN;html=1;" vertex="1" parent="1">
          <mxGeometry x="66" y="785" width="60" height="234" as="geometry" />
        </mxCell>
        <mxCell id="4fA4bNYbJNO8NdR0cCv7-30" value="" style="shape=curlyBracket;rounded=1;whiteSpace=wrap;fontSize=16.7;spacing=3.8;strokeWidth=NaN;" vertex="1" parent="4fA4bNYbJNO8NdR0cCv7-29">
          <mxGeometry x="30.75" width="29.25" height="234" as="geometry" />
        </mxCell>
        <mxCell id="4fA4bNYbJNO8NdR0cCv7-31" value="Clues" style="whiteSpace=wrap;fontSize=16.7;spacing=3.8;rounded=1;absoluteArcSize=1;arcSize=9;strokeWidth=NaN;" vertex="1" parent="4fA4bNYbJNO8NdR0cCv7-29">
          <mxGeometry width="30.75" height="234" as="geometry" />
        </mxCell>
        <mxCell id="4fA4bNYbJNO8NdR0cCv7-32" value="" style="html=1;jettySize=18;whiteSpace=wrap;fontSize=13;strokeOpacity=100;strokeWidth=0.8;rounded=1;arcSize=12;edgeStyle=orthogonalEdgeStyle;startArrow=none;endArrow=block;endFill=1;exitX=0.816;exitY=1.018;exitPerimeter=0;entryX=-0.004;entryY=0.5;entryPerimeter=0;lucidId=I-mGmG~PU.Sw;fontColor=default;" edge="1" parent="1" source="4fA4bNYbJNO8NdR0cCv7-19" target="4fA4bNYbJNO8NdR0cCv7-18">
          <mxGeometry width="100" height="100" relative="1" as="geometry">
            <Array as="points">
              <mxPoint x="-257" y="410" />
              <mxPoint x="-479" y="410" />
              <mxPoint x="-479" y="242" />
            </Array>
          </mxGeometry>
        </mxCell>
        <mxCell id="4fA4bNYbJNO8NdR0cCv7-33" value="" style="html=1;jettySize=18;whiteSpace=wrap;fontSize=13;strokeOpacity=100;strokeWidth=0.8;rounded=1;arcSize=12;edgeStyle=orthogonalEdgeStyle;startArrow=none;endArrow=block;endFill=1;exitX=0.911;exitY=1.018;exitPerimeter=0;entryX=0.164;entryY=1.018;entryPerimeter=0;lucidId=_gnGPn6DqpGU;fontColor=default;" edge="1" parent="1" source="4fA4bNYbJNO8NdR0cCv7-19" target="4fA4bNYbJNO8NdR0cCv7-21">
          <mxGeometry width="100" height="100" relative="1" as="geometry">
            <Array as="points" />
          </mxGeometry>
        </mxCell>
      </root>
    </mxGraphModel>
  </diagram>
</mxfile>
